<?xml version="1.0" standalone="no"?>
<!DOCTYPE svg PUBLIC "-//W3C//DTD SVG 20010904//EN"
 "http://www.w3.org/TR/2001/REC-SVG-20010904/DTD/svg10.dtd">
<svg version="1.0" xmlns="http://www.w3.org/2000/svg"
 width="1600.000000pt" height="1600.000000pt" viewBox="0 0 1600.000000 1600.000000"
 preserveAspectRatio="xMidYMid meet">
<metadata>
Created by potrace 1.15, written by Peter Selinger 2001-2017
</metadata>
<g transform="translate(0.000000,1600.000000) scale(0.100000,-0.100000)"
fill="#000000" stroke="none">
<path d="M13125 14650 c-207 -44 -376 -175 -467 -361 -157 -321 -107 -720 117
-945 115 -115 261 -177 458 -193 275 -22 494 45 647 198 186 186 259 494 184
774 -60 226 -218 410 -423 493 -137 55 -347 69 -516 34z"/>
<path d="M6340 11985 c-846 -105 -1583 -600 -2007 -1350 -165 -290 -277 -637
-319 -985 -18 -153 -18 -473 1 -631 91 -778 514 -1469 1170 -1908 347 -233
728 -373 1175 -433 157 -21 517 -15 689 11 813 124 1498 582 1917 1284 174
291 291 624 345 978 26 172 32 532 11 689 -60 447 -200 828 -433 1175 -439
656 -1130 1079 -1908 1170 -154 18 -494 18 -641 0z"/>
<path d="M12000 11665 l0 -335 330 0 330 0 0 -2000 0 -2000 670 0 670 0 0
2335 0 2335 -1000 0 -1000 0 0 -335z"/>
<path d="M6410 5334 c-1396 -48 -2572 -395 -3550 -1047 -126 -85 -409 -300
-520 -397 -389 -339 -756 -770 -959 -1125 l-51 -89 0 -673 0 -673 5335 0 5335
0 0 675 0 674 -37 68 c-54 99 -209 327 -299 440 -133 167 -328 385 -451 503
-1015 972 -2375 1527 -3988 1629 -175 11 -665 20 -815 15z"/>
</g>
</svg>
