<?xml version="1.0" standalone="no"?>
<!DOCTYPE svg PUBLIC "-//W3C//DTD SVG 20010904//EN"
 "http://www.w3.org/TR/2001/REC-SVG-20010904/DTD/svg10.dtd">
<svg version="1.0" xmlns="http://www.w3.org/2000/svg"
 width="1920.000000pt" height="1200.000000pt" viewBox="0 0 1920.000000 1200.000000"
 preserveAspectRatio="xMidYMid meet">
<metadata>
Created by potrace 1.15, written by Peter Selinger 2001-2017
</metadata>
<g transform="translate(0.000000,1200.000000) scale(0.100000,-0.100000)"
fill="#000000" stroke="none">
<path d="M3630 10076 c0 -19 -4 -38 -10 -41 -5 -3 -10 -18 -10 -32 0 -15 -4
-40 -9 -57 -5 -17 -17 -58 -27 -91 -9 -33 -20 -68 -25 -77 -5 -10 -9 -29 -9
-42 0 -14 -4 -28 -10 -31 -5 -3 -10 -24 -10 -46 0 -21 -4 -39 -10 -39 -5 0
-10 -20 -10 -45 0 -25 -4 -45 -10 -45 -5 0 -10 -8 -10 -17 0 -24 -55 -242 -63
-250 -4 -3 -7 -21 -7 -39 0 -18 -4 -36 -10 -39 -5 -3 -10 -19 -10 -36 0 -16
-4 -29 -10 -29 -5 0 -10 -13 -10 -28 0 -30 -20 -82 -32 -82 -5 0 -8 9 -8 20 0
11 5 20 10 20 6 0 10 20 10 44 0 25 5 48 10 51 6 3 10 24 10 46 0 21 5 39 10
39 6 0 10 20 10 45 0 25 4 45 9 45 10 0 20 57 26 145 l4 60 -10 -52 c-6 -29
-15 -53 -20 -53 -5 0 -9 -15 -9 -34 0 -19 -4 -38 -10 -41 -5 -3 -10 -21 -10
-40 0 -19 -4 -37 -10 -40 -6 -4 -10 10 -10 34 0 23 5 41 10 41 6 0 10 27 10
60 0 33 4 60 10 60 6 0 10 24 10 53 0 29 4 57 9 63 5 5 12 29 15 54 8 57 16
144 10 108 -3 -14 -12 -32 -20 -38 -8 -8 -14 -31 -14 -61 0 -26 -4 -51 -10
-54 -5 -3 -10 -26 -10 -51 0 -28 -4 -43 -10 -39 -6 4 -10 -12 -10 -39 0 -25
-4 -46 -9 -46 -5 0 -11 -24 -14 -52 -2 -29 -12 -84 -22 -123 -26 -106 -35
-146 -46 -192 -5 -24 -14 -64 -20 -90 -6 -27 -13 -72 -16 -101 -3 -28 -9 -50
-14 -46 -5 3 -9 -18 -9 -45 0 -28 -4 -51 -10 -51 -5 0 -10 -18 -10 -40 0 -22
-4 -40 -9 -40 -5 0 -11 -17 -14 -37 -9 -62 -40 -195 -71 -306 -9 -32 -16 -74
-16 -92 0 -19 -4 -35 -10 -35 -6 0 -10 -27 -10 -60 0 -33 -4 -60 -10 -60 -5 0
-10 -18 -10 -40 0 -22 -4 -40 -10 -40 -5 0 -10 -8 -10 -17 0 -10 -7 -36 -16
-60 l-17 -42 -18 23 c-10 12 -20 36 -22 52 -2 16 -10 29 -18 29 -31 1 -39 17
-39 80 0 35 -4 65 -10 67 -5 2 -10 57 -11 123 -2 222 -17 211 -18 -15 -1 -118
-4 -233 -6 -255 -7 -59 -9 -235 -3 -271 2 -18 1 -40 -3 -50 -4 -14 -8 -7 -14
24 -7 43 -7 43 -20 18 -7 -13 -13 -44 -13 -68 0 -24 -7 -56 -16 -73 -9 -16
-16 -47 -16 -67 0 -21 -4 -38 -10 -38 -5 0 -10 -18 -10 -40 0 -22 -4 -40 -10
-40 -5 0 -10 -11 -10 -25 0 -14 -4 -25 -10 -25 -6 0 -10 -28 -10 -64 0 -36 -4
-68 -10 -71 -5 -3 -10 -16 -10 -27 0 -12 -4 -35 -9 -52 -23 -76 -41 -146 -53
-206 -7 -36 -21 -74 -30 -84 -17 -19 -18 -18 -18 37 0 31 -4 57 -10 57 -5 0
-10 -11 -10 -24 0 -14 -4 -28 -10 -31 -6 -4 -10 20 -10 64 0 41 4 71 10 71 6
0 10 15 10 34 0 19 5 38 10 41 6 3 10 18 10 31 0 15 10 34 23 45 12 10 16 18
10 19 -15 0 -18 63 -4 88 5 9 10 49 13 88 3 55 1 71 -9 67 -7 -3 -13 -20 -13
-39 0 -19 -4 -34 -10 -34 -5 0 -10 24 -10 54 0 30 5 58 10 61 6 3 10 15 10 26
0 11 -4 17 -10 14 -5 -3 -10 1 -10 10 0 9 5 13 10 10 6 -4 10 42 10 130 0 88
-4 134 -10 130 -6 -3 -10 -52 -10 -111 0 -63 -4 -104 -10 -104 -6 0 -10 -33
-10 -79 0 -44 -4 -83 -10 -86 -5 -3 -10 -36 -10 -72 0 -36 -4 -82 -9 -102 -6
-20 -17 -108 -26 -196 -9 -88 -20 -173 -25 -190 -5 -16 -10 -80 -12 -141 -3
-103 -4 -110 -20 -100 -16 9 -18 28 -18 153 0 84 4 144 10 148 6 4 10 55 10
121 0 69 4 114 10 114 6 0 10 25 10 55 0 30 5 55 10 55 6 0 10 35 9 88 -1 91
-16 83 -18 -10 -1 -27 -5 -48 -10 -48 -11 0 -21 -58 -27 -163 -3 -43 -10 -75
-15 -72 -5 4 -9 -33 -9 -89 0 -52 -4 -97 -9 -100 -5 -3 -11 -43 -14 -88 -10
-141 -27 -285 -40 -339 l-13 -51 -17 26 c-9 14 -17 44 -17 66 0 25 -4 39 -10
35 -6 -3 -10 -52 -10 -110 0 -58 -4 -107 -10 -110 -13 -8 -13 -45 0 -45 6 0
10 -48 10 -125 0 -77 -4 -125 -10 -125 -5 0 -10 -18 -10 -40 0 -22 -4 -40 -10
-40 -5 0 -10 -9 -10 -19 0 -11 -4 -23 -10 -26 -6 -3 -10 -17 -10 -31 0 -14
-11 -40 -25 -58 -14 -18 -25 -38 -25 -44 0 -7 -9 -29 -20 -49 -11 -21 -20 -50
-20 -66 0 -34 -22 -107 -32 -107 -5 0 -8 -7 -8 -15 0 -8 -4 -15 -10 -15 -5 0
-10 -11 -10 -25 0 -14 -4 -25 -9 -25 -5 0 -12 -10 -15 -22 l-7 -23 -10 25 c-6
14 -17 28 -25 33 -8 4 -14 15 -14 22 0 8 -5 15 -11 15 -20 0 -39 29 -39 60 0
18 -4 29 -10 25 -6 -4 -10 12 -10 39 0 43 -6 52 -34 47 -5 -1 -6 26 -4 61 6
74 2 88 -20 88 -10 0 -13 -3 -7 -8 16 -12 16 -38 0 -52 -11 -9 -15 -31 -15
-79 1 -58 2 -64 14 -48 12 16 14 16 20 1 3 -8 6 -28 6 -43 0 -15 9 -33 20 -41
20 -14 28 -50 11 -50 -5 0 -11 -17 -14 -37 -15 -107 -46 -152 -48 -71 -2 29
-3 34 -6 16 -2 -16 -8 -28 -13 -28 -23 0 -40 14 -40 35 0 20 -28 89 -31 75 -8
-48 -8 -100 0 -100 6 0 11 -9 11 -20 0 -11 4 -20 8 -20 5 0 9 -20 11 -44 2
-40 0 -44 -19 -39 -18 5 -20 1 -20 -40 0 -25 5 -49 10 -52 6 -3 10 -19 10 -36
0 -22 -5 -29 -20 -29 -15 0 -20 7 -20 28 0 26 -29 62 -49 62 -11 0 -21 -25
-21 -56 0 -14 6 -24 15 -24 22 0 48 -46 41 -74 -5 -20 -3 -23 14 -19 11 3 20
0 20 -6 0 -15 -35 -14 -60 1 -22 14 -33 8 -24 -16 3 -9 17 -16 31 -16 13 0 31
-6 39 -14 19 -20 18 -56 -2 -56 -31 0 -43 -30 -28 -67 21 -50 18 -78 -11 -91
-14 -6 -25 -16 -25 -22 0 -5 -9 -10 -21 -10 -12 0 -23 -8 -26 -20 -5 -18 -14
-20 -79 -20 -43 0 -74 -4 -74 -10 0 -6 -26 -10 -59 -10 -33 0 -63 -4 -66 -10
-3 -5 -33 -10 -66 -10 -52 0 -59 2 -59 19 0 11 -7 26 -15 35 -8 8 -15 22 -15
30 0 9 -4 16 -10 16 -5 0 -10 23 -10 51 0 31 -4 48 -10 44 -5 -3 -10 -17 -10
-31 0 -13 -3 -24 -6 -24 -22 0 -48 68 -37 97 6 15 43 18 43 3 0 -17 29 -11 50
10 11 11 16 20 12 20 -14 0 -7 41 9 51 9 5 10 9 2 9 -6 0 -14 17 -16 38 -3 32
-5 34 -12 15 -5 -17 -15 -23 -36 -23 -16 0 -29 -4 -29 -10 0 -5 5 -10 10 -10
6 0 10 -11 10 -25 0 -17 -4 -23 -14 -19 -8 3 -12 12 -10 19 3 7 1 16 -5 20 -6
3 -11 25 -11 48 -1 37 -2 40 -14 25 -19 -25 -36 -3 -36 46 0 64 -11 34 -13
-36 -2 -60 -1 -63 21 -61 13 2 21 -1 17 -7 -3 -6 -15 -10 -26 -10 -21 0 -25
-10 -8 -27 8 -8 6 -15 -10 -25 -18 -11 -21 -22 -21 -81 0 -71 13 -83 24 -22 4
19 12 37 18 41 6 4 8 3 4 -4 -3 -5 -2 -12 3 -14 4 -1 11 -24 15 -50 7 -43 5
-48 -12 -48 -11 0 -22 7 -26 15 -3 8 -9 15 -13 14 -4 -1 -10 -1 -13 0 -3 1
-23 4 -45 6 -68 7 -85 22 -82 69 2 36 -1 41 -21 42 -12 1 -22 -5 -22 -12 0 -8
-10 -14 -24 -14 -13 0 -26 -7 -30 -15 -4 -11 12 -24 60 -47 44 -21 61 -35 54
-42 -15 -15 -12 -23 10 -29 14 -3 20 -14 20 -31 0 -28 -14 -35 -23 -12 -4 9
-14 12 -25 9 -11 -2 -23 0 -26 6 -10 16 -55 14 -72 -3 -21 -22 -18 -26 21 -26
40 0 47 -17 10 -26 -14 -3 -25 -10 -25 -14 0 -5 -8 -11 -17 -13 -14 -4 -13 -5
4 -6 12 0 24 5 26 12 4 9 8 8 16 -3 8 -11 11 -12 11 -2 0 9 9 7 29 -8 17 -11
47 -21 68 -22 21 -1 44 -7 50 -14 15 -15 17 -74 3 -74 -6 0 -10 -32 -10 -75 0
-54 -4 -75 -13 -75 -7 0 -18 -9 -25 -20 -7 -11 -18 -20 -26 -20 -8 0 -17 -7
-20 -16 -8 -21 -8 -26 3 -20 12 8 22 -20 15 -39 -5 -13 -8 -13 -27 0 -12 8
-35 15 -52 15 -16 0 -25 4 -19 8 6 4 13 15 17 25 6 16 4 18 -35 21 -7 1 -13
-6 -13 -14 -1 -32 -14 -39 -73 -33 -31 3 -82 14 -112 25 -30 12 -77 23 -105
25 -80 8 -78 23 2 23 40 0 75 5 78 10 4 6 -5 10 -19 10 -14 0 -26 5 -26 10 0
6 -22 10 -49 10 -40 0 -50 -3 -54 -20 -4 -15 -14 -20 -41 -20 -20 0 -36 5 -36
10 0 6 -33 10 -80 10 -47 0 -80 4 -80 10 0 6 -11 10 -24 10 -17 0 -27 7 -32
23 -4 12 -12 25 -18 29 -8 6 -7 8 2 8 7 0 12 13 12 32 l0 32 20 -22 c25 -27
56 -28 69 -3 6 10 22 22 36 25 16 4 25 13 25 26 0 11 6 20 13 20 7 0 22 8 33
17 36 33 117 93 125 93 8 0 42 32 68 63 12 15 11 17 -12 17 -17 0 -28 -7 -32
-20 -4 -12 -15 -20 -29 -20 -23 0 -48 -22 -59 -51 -7 -21 -77 -37 -151 -33
-61 3 -77 13 -69 45 3 11 0 25 -6 33 -19 23 -2 48 28 41 47 -10 67 21 62 98
-2 27 -18 20 -57 -23 -34 -38 -38 -39 -51 -23 -14 17 -14 17 -9 1 6 -20 -41
-81 -55 -72 -6 3 -5 11 2 20 9 11 9 20 0 41 -10 21 -9 28 1 34 7 5 9 9 5 9 -5
0 -2 7 5 15 34 37 38 46 38 80 0 19 4 35 8 35 9 0 38 69 35 81 -2 4 6 11 17
14 14 5 19 15 18 47 0 22 4 43 9 47 5 3 22 27 37 54 15 26 32 47 36 47 12 0 5
33 -8 38 -6 2 -18 -13 -28 -33 -9 -20 -23 -39 -31 -42 -7 -3 -13 -14 -13 -25
0 -21 -27 -54 -37 -45 -3 3 1 13 10 21 8 9 12 25 10 40 -3 16 -1 26 6 26 6 0
11 9 11 20 0 11 -4 20 -10 20 -5 0 -10 -4 -10 -9 0 -6 -11 -22 -25 -37 -13
-14 -22 -30 -19 -35 3 -5 -1 -9 -9 -9 -8 0 -25 -25 -38 -55 -16 -36 -30 -55
-41 -55 -11 0 -18 -8 -18 -20 0 -11 -4 -20 -10 -20 -6 0 -10 -125 -10 -356 0
-284 3 -354 13 -346 7 5 20 6 32 1 28 -11 85 -64 85 -79 0 -21 44 -49 80 -50
42 -1 82 -26 62 -39 -8 -4 -31 -7 -52 -5 -29 2 -37 -1 -34 -11 4 -9 -1 -13
-15 -12 -12 1 -21 7 -21 14 0 7 -4 13 -9 13 -5 0 -14 12 -19 28 l-10 27 -1
-32 c-1 -28 -5 -33 -26 -33 -14 0 -25 6 -25 13 0 7 -9 23 -20 35 -11 12 -20
30 -20 42 0 11 -4 20 -10 20 -5 0 -10 -11 -10 -25 0 -14 5 -25 10 -25 6 0 10
-16 10 -36 0 -21 -4 -33 -10 -29 -7 4 -10 -482 -10 -1449 0 -964 3 -1456 10
-1456 6 0 10 -5 10 -10 0 -6 10 -22 23 -35 30 -33 41 -46 61 -78 18 -27 18
-27 -3 -27 -12 0 -20 4 -17 9 3 5 -5 12 -19 15 -14 4 -25 13 -25 21 0 19 -7
19 -26 1 -18 -19 -20 -182 -2 -199 32 -30 98 -63 70 -35 -7 7 -12 16 -12 20 0
7 24 -10 54 -38 6 -6 21 -10 32 -9 17 1 20 -3 16 -23 -3 -14 -1 -23 4 -20 5 3
17 -3 27 -14 9 -10 14 -18 11 -18 -4 0 5 -9 19 -20 14 -11 30 -20 36 -20 6 0
11 -9 11 -20 0 -11 4 -20 10 -20 13 0 50 -32 50 -43 0 -12 26 -37 39 -37 5 0
20 -15 32 -32 27 -38 45 -58 53 -58 12 0 5 23 -14 50 -15 21 -17 31 -9 36 7 4
18 -1 25 -10 9 -13 22 -17 48 -13 40 5 52 -17 16 -28 -20 -6 -28 -35 -10 -35
6 0 10 -7 10 -15 0 -14 -3 -13 -25 1 -20 13 -28 14 -40 4 -19 -16 -19 -34 -1
-27 10 4 13 1 9 -9 -6 -16 -33 -19 -33 -4 0 6 -9 10 -19 10 -11 0 -21 6 -24
13 -2 6 -8 9 -12 5 -4 -4 -1 -14 6 -22 41 -45 47 -56 30 -56 -4 0 -22 13 -39
30 -18 16 -36 30 -42 30 -5 0 -10 4 -10 9 0 5 -14 11 -30 13 -17 3 -30 1 -30
-3 0 -5 -15 -15 -33 -22 -52 -24 -67 -27 -67 -16 0 14 26 39 39 39 6 0 11 9
11 19 0 10 7 22 16 25 13 5 12 9 -5 28 -12 12 -21 25 -21 29 0 9 -54 31 -71
29 -8 -2 -27 -2 -42 -1 -34 1 -27 21 7 21 15 0 26 7 29 20 3 13 0 20 -8 20 -8
0 -33 20 -56 45 -23 25 -48 45 -56 45 -17 0 -17 -47 -1 -53 10 -4 10 -6 1 -6
-9 -1 -12 -84 -13 -341 l0 -340 380 0 c339 0 380 2 366 15 -8 8 -19 15 -25 15
-6 0 -15 9 -21 20 -14 25 8 37 39 21 11 -6 28 -11 38 -10 10 0 13 3 6 6 -7 2
-13 11 -13 19 0 8 -4 14 -10 14 -5 0 -10 9 -10 20 0 11 -7 20 -15 20 -8 0 -15
9 -15 20 0 11 -4 20 -10 20 -5 0 -10 -4 -10 -10 0 -5 -8 -3 -18 5 -9 7 -28 22
-41 33 -20 16 -22 21 -12 40 11 20 9 22 -19 22 -16 0 -30 5 -30 10 0 6 -9 10
-19 10 -29 0 -33 15 -11 40 11 13 20 18 20 12 0 -7 7 -12 16 -12 8 0 12 -5 9
-10 -3 -6 0 -10 9 -10 8 0 16 6 19 13 2 6 8 8 13 4 4 -4 3 -17 -4 -27 -11 -17
-8 -20 28 -30 22 -6 40 -16 40 -23 0 -15 25 -43 63 -72 15 -11 27 -25 27 -32
0 -7 29 -42 64 -78 l65 -65 2293 1 c1378 0 2284 4 2271 9 -13 5 -23 14 -23 20
0 13 52 1 62 -14 11 -17 800 -20 813 -3 30 36 124 67 208 67 37 0 67 2 67 5 0
10 -44 51 -63 58 -21 8 -23 37 -2 37 8 0 23 4 33 9 44 22 204 53 245 47 36 -5
40 -4 25 8 -23 17 -13 26 29 26 18 0 33 5 33 10 0 6 18 10 40 10 22 0 40 5 40
10 0 6 28 10 65 10 37 0 65 4 65 10 0 6 14 10 30 10 17 0 30 5 30 10 0 6 13
10 29 10 17 0 33 5 37 11 5 9 -9 10 -52 5 -32 -4 -113 -11 -179 -14 -68 -4
-115 -11 -107 -15 29 -19 -7 -27 -124 -27 -81 0 -123 -4 -119 -10 4 -6 -23
-10 -75 -10 -52 0 -79 -4 -75 -10 3 -6 -1 -10 -9 -10 -9 0 -16 5 -16 10 0 6
-11 10 -25 10 -14 0 -25 -4 -25 -10 0 -5 -20 -10 -45 -10 -25 0 -45 5 -45 10
0 6 7 10 16 10 15 0 44 23 44 34 0 14 -79 5 -112 -13 -28 -14 -34 -21 -25 -30
8 -8 4 -11 -15 -11 -15 0 -29 -6 -32 -12 -5 -11 -7 -11 -12 0 -7 16 -71 16
-77 0 -4 -10 -6 -10 -6 0 -1 6 -8 12 -16 12 -8 0 -15 9 -15 20 0 17 7 20 40
20 22 0 40 5 40 10 0 6 15 10 34 10 19 0 37 4 41 9 3 5 20 13 38 17 l32 7 -29
12 c-18 8 -42 9 -65 5 -142 -30 -162 -32 -189 -13 -24 15 -25 18 -9 21 11 2
27 11 38 20 10 10 28 25 39 35 11 9 27 17 36 17 8 0 12 5 9 10 -4 6 7 10 24
10 17 0 31 5 31 10 0 6 9 10 19 10 11 0 26 7 35 15 8 8 22 15 30 15 9 0 16 5
16 11 0 11 -8 9 -108 -24 -51 -17 -67 -19 -82 -9 -26 16 -43 15 -37 -2 4 -10
-5 -16 -34 -21 -21 -4 -39 -11 -39 -16 0 -5 -9 -9 -20 -9 -11 0 -20 -4 -20
-10 0 -5 -13 -10 -30 -10 -16 0 -30 -4 -30 -10 0 -5 -11 -10 -25 -10 -14 0
-25 5 -25 10 0 6 9 10 20 10 11 0 20 5 20 10 0 19 -39 10 -45 -10 -3 -11 -12
-20 -18 -20 -7 0 -31 -10 -54 -22 -36 -19 -46 -21 -63 -10 -11 6 -29 12 -39
12 -11 0 -22 4 -25 9 -7 11 -46 2 -46 -10 0 -15 -69 -22 -85 -9 -20 17 -20 70
1 70 11 0 14 6 8 22 -6 21 -5 21 10 9 16 -13 17 -12 10 12 -6 25 -5 27 17 19
31 -11 59 -4 59 14 0 8 7 14 15 14 18 0 20 27 3 33 -7 2 -10 7 -7 11 4 4 14
-1 24 -10 14 -14 18 -15 25 -4 5 8 6 18 4 22 -3 4 9 8 25 8 17 0 31 5 31 10 0
6 -7 10 -15 10 -8 0 -15 4 -15 8 0 4 -7 17 -16 28 -17 20 -18 20 -53 2 -19
-10 -46 -18 -58 -18 -24 0 -97 -63 -86 -74 9 -9 -40 -7 -52 2 -5 4 -12 16 -13
27 -2 11 -8 21 -13 23 -12 5 -11 62 1 62 6 0 10 11 10 25 0 14 -4 25 -10 25
-5 0 -10 -9 -10 -19 0 -16 -18 -31 -36 -31 -9 0 -3 41 8 59 12 20 4 56 -11 47
-10 -6 -22 30 -13 38 11 12 39 5 60 -14 23 -22 42 -26 42 -10 0 6 10 2 22 -10
12 -11 26 -20 30 -20 14 0 45 -33 52 -55 5 -19 23 -22 89 -16 14 2 7 51 -7 51
-8 0 -16 6 -19 13 -3 9 -9 9 -27 -1 -12 -8 -19 -9 -15 -3 3 6 0 11 -8 11 -8 0
-20 15 -28 33 -7 17 -24 43 -38 57 l-26 25 75 3 c41 2 98 -1 125 -7 28 -6 109
-15 180 -21 72 -6 145 -15 164 -21 24 -8 35 -8 40 0 5 7 56 11 147 12 221 1
254 -1 254 -13 0 -7 15 -9 43 -5 23 3 62 1 87 -4 25 -6 59 -13 75 -15 17 -3
40 -10 53 -17 19 -9 26 -7 45 11 l21 22 -34 2 c-54 2 -58 3 -67 12 -13 14 577
-11 592 -25 5 -5 31 -9 57 -9 26 0 48 -4 48 -10 0 -6 -37 -10 -90 -10 -53 0
-90 -4 -90 -10 0 -5 11 -10 24 -10 14 0 28 -4 31 -10 3 -5 21 -9 38 -9 l32 2
-35 7 -35 7 43 2 c23 0 42 -3 42 -9 0 -5 17 -10 38 -10 28 0 44 -6 60 -25 13
-15 28 -22 37 -19 8 4 15 1 15 -5 0 -6 9 -11 20 -11 11 0 20 5 20 11 0 5 -4 8
-9 4 -10 -5 -41 21 -41 35 0 14 49 21 70 10 54 -29 69 7 15 39 -19 11 -35 25
-35 31 0 16 31 11 49 -8 9 -10 24 -21 35 -25 14 -5 17 -13 12 -32 -8 -31 12
-41 51 -27 27 10 28 11 6 17 -42 13 -24 25 38 25 40 0 58 -4 54 -11 -5 -7 29
-10 106 -8 76 1 114 -2 117 -10 5 -14 62 -15 62 -1 0 6 14 10 30 10 17 0 30
-4 30 -10 0 -5 9 -10 19 -10 11 0 23 -5 26 -10 3 -6 32 -10 64 -10 32 0 61 -3
65 -7 4 -5 11 -8 14 -9 16 -2 68 -17 77 -23 6 -3 -3 -9 -20 -13 -19 -4 4 -7
60 -7 105 0 189 -10 193 -22 2 -5 19 -9 38 -9 19 0 34 -4 34 -10 0 -6 42 -10
105 -10 63 0 105 -4 105 -10 0 -6 27 -10 62 -10 34 0 75 -4 92 -9 74 -23 312
-43 368 -32 30 6 27 8 -37 20 -38 7 -88 15 -110 18 -22 3 -44 9 -50 14 -5 5
-39 9 -76 9 -37 0 -71 4 -74 10 -3 5 -28 10 -56 10 -27 0 -49 4 -49 9 0 5 -35
12 -77 15 -122 8 -186 16 -208 26 -11 5 -42 11 -70 13 -27 3 -84 10 -125 18
-106 18 -56 29 79 18 67 -6 109 -5 121 1 11 6 43 10 72 9 29 0 87 4 128 11 56
8 112 9 216 1 179 -14 294 -14 294 -1 0 6 69 10 188 10 124 0 182 4 172 10 -8
5 -102 10 -213 10 -130 0 -196 3 -192 10 4 7 -137 10 -415 10 -232 0 -429 4
-438 9 -9 5 -57 11 -105 14 -49 3 -91 8 -95 11 -3 3 44 6 104 6 60 0 116 5
124 10 12 8 12 10 -5 10 -11 0 -141 7 -290 15 -148 8 -339 15 -422 16 -84 0
-153 5 -153 10 0 5 -34 9 -75 9 -68 0 -75 2 -75 20 0 16 -7 20 -35 20 -38 0
-50 -20 -12 -21 22 0 22 0 -2 -10 -16 -6 -27 -6 -30 0 -9 14 -180 16 -194 2
-14 -14 -141 -15 -132 -1 4 6 -43 10 -134 10 -82 0 -142 4 -146 10 -3 6 -33
10 -65 10 -32 0 -62 4 -65 10 -8 13 -65 13 -65 0 0 -5 5 -10 10 -10 6 0 10 -4
10 -10 0 -5 -21 -10 -46 -10 -27 0 -43 4 -39 10 4 6 -18 10 -59 10 -71 0 -67
-4 -70 63 -2 31 -36 49 -80 41 -27 -4 -41 -2 -47 7 -7 11 -9 10 -9 -3 0 -10 7
-18 15 -18 20 0 19 -17 -2 -29 -15 -9 -13 -10 12 -11 17 0 36 5 43 12 9 9 12
6 12 -16 l0 -27 -142 4 c-79 3 -190 10 -248 15 -58 6 -145 14 -195 18 -49 3
-98 10 -108 15 -9 6 -21 8 -26 5 -8 -5 -113 6 -158 17 -15 4 -20 2 -17 -7 3
-7 -2 -19 -10 -26 -9 -7 -13 -16 -10 -21 7 -11 -17 -11 -34 -1 -8 5 -10 16 -5
27 6 18 4 17 -31 -3 -20 -12 -48 -22 -62 -22 -13 0 -24 -4 -24 -10 0 -5 -4
-10 -10 -10 -5 0 -10 16 -10 35 0 21 -5 35 -12 36 -7 0 -26 3 -43 5 -29 5 -29
4 -10 -10 20 -15 20 -15 -1 -16 -12 0 -35 5 -53 11 -26 9 -35 8 -50 -5 -20
-18 -47 -21 -56 -6 -3 5 3 10 14 10 12 0 21 7 21 15 0 9 10 15 26 15 14 0 32
7 40 15 9 8 27 17 42 20 59 13 108 29 124 43 9 8 22 11 28 7 6 -4 19 0 29 9
10 9 31 18 47 20 16 2 40 8 54 14 22 9 23 11 8 17 -10 4 -15 11 -12 16 3 5 0
9 -5 9 -6 0 -11 5 -11 10 0 6 16 10 36 10 21 0 33 4 29 10 -4 6 16 10 54 10
52 0 61 3 66 21 5 13 12 18 22 14 9 -3 37 1 62 9 25 8 58 17 73 20 16 4 27 12
25 19 -1 8 15 13 46 15 33 2 47 0 42 -7 -3 -6 -16 -11 -27 -11 -12 0 -18 -3
-14 -7 13 -13 45 -13 86 2 47 17 90 11 90 -12 0 -9 -17 -31 -37 -49 -32 -30
-34 -34 -16 -34 12 0 25 4 28 10 8 13 85 13 85 0 0 -5 7 -10 16 -10 8 0 12 5
9 10 -4 6 5 10 19 10 14 0 26 -4 26 -10 0 -5 8 -10 19 -10 25 0 43 -24 46 -60
l3 -30 -62 3 c-57 2 -61 0 -64 -21 -3 -21 0 -22 63 -22 52 0 70 4 87 20 21 19
23 19 32 3 16 -30 34 -43 56 -43 12 0 18 -4 15 -10 -3 -5 -2 -10 4 -10 5 0 11
5 13 11 3 9 9 9 23 1 11 -6 40 -20 65 -31 38 -17 41 -20 19 -21 -43 0 -42 -13
3 -28 56 -17 175 -25 183 -12 4 6 -5 10 -19 10 -15 0 -38 13 -56 30 -17 17
-35 28 -41 25 -5 -4 -9 -1 -9 4 0 6 -9 11 -20 11 -12 0 -20 7 -20 16 0 18 -58
74 -77 74 -7 0 -18 9 -25 20 -7 11 -21 20 -30 20 -10 0 -18 5 -18 10 0 6 -6
10 -14 10 -9 0 -12 7 -9 20 4 13 14 20 30 20 13 0 21 -4 18 -10 -5 -9 1 -12
21 -9 4 0 10 -5 14 -11 5 -9 10 -6 15 9 6 19 14 21 70 21 35 0 67 -4 70 -10 3
-5 21 -10 38 -10 20 0 43 -10 61 -25 29 -25 51 -30 80 -19 20 8 11 24 -14 24
-11 0 -24 9 -30 20 -9 17 -8 20 9 20 11 0 22 -6 24 -12 4 -10 6 -10 6 0 1 14
37 16 46 2 4 -6 64 -10 148 -10 95 0 137 3 127 10 -8 5 -39 10 -67 10 -29 0
-53 4 -53 9 0 4 -25 11 -56 14 -40 4 -62 12 -80 30 -24 24 -80 37 -166 37 -20
0 -40 5 -43 10 -3 6 -24 10 -46 10 -24 0 -38 4 -34 10 3 6 1 10 -4 10 -6 0
-11 9 -11 20 0 16 7 20 31 20 17 0 28 4 24 10 -3 6 3 10 14 10 12 0 21 4 21 9
0 5 10 11 23 14 12 3 47 13 77 22 83 26 172 38 248 35 9 -1 63 0 119 2 73 2
103 7 103 15 0 8 11 11 30 9 29 -3 70 17 70 35 0 5 -21 9 -47 9 -67 0 -87 15
-31 24 23 3 70 10 103 15 33 5 94 14 135 20 277 41 328 50 336 62 3 5 30 9 60
9 30 0 54 5 54 10 0 6 50 10 130 10 72 0 130 4 130 9 0 25 -32 32 -117 27 -48
-3 -128 -8 -178 -11 -49 -3 -99 -10 -110 -15 -11 -5 -103 -11 -205 -13 -102
-2 -195 -8 -208 -12 -18 -6 -21 -4 -16 8 7 20 -13 32 -31 17 -12 -10 -22 -10
-45 0 -17 7 -42 9 -57 5 -34 -8 -203 -24 -335 -31 -66 -4 -98 -2 -98 5 0 6 20
11 45 11 25 0 45 4 45 9 0 5 13 11 29 14 16 3 31 13 35 22 4 11 2 14 -7 8 -6
-4 -41 -11 -77 -15 -114 -13 -150 -20 -150 -29 0 -5 12 -9 27 -9 26 0 26 0 7
-18 -14 -14 -37 -19 -84 -21 -35 -1 -70 -7 -77 -12 -6 -6 -24 -9 -40 -7 -25 4
-26 5 -8 13 11 5 27 17 36 27 9 10 21 18 27 18 6 0 17 8 24 17 7 10 29 27 48
38 19 10 42 26 50 35 8 10 34 23 58 30 23 7 42 17 42 22 0 4 9 8 19 8 11 0 23
5 26 10 3 6 22 10 41 10 19 0 34 5 34 10 0 6 11 10 24 10 14 0 28 5 31 10 3 5
15 10 26 10 11 0 22 7 25 15 4 8 10 15 16 15 12 0 43 31 43 43 0 5 9 15 19 23
23 17 96 19 96 3 0 -7 -12 -9 -30 -7 -23 3 -30 1 -26 -9 3 -7 -1 -13 -9 -13
-8 0 -15 -4 -15 -9 0 -19 20 -21 56 -6 20 8 47 15 60 15 12 0 26 5 29 10 3 5
24 10 45 10 21 0 42 4 45 10 3 5 24 10 46 10 32 0 39 -3 37 -17 -3 -19 -57
-43 -98 -43 -14 0 -40 -9 -58 -20 -19 -12 -55 -28 -80 -37 -50 -16 -72 -30
-72 -44 0 -14 28 -11 34 4 5 9 7 9 12 0 7 -15 54 -17 54 -3 0 6 10 10 23 10
13 0 28 5 34 11 7 7 29 13 51 14 54 4 162 76 162 109 0 9 8 16 20 16 11 0 20
5 20 10 0 6 9 10 20 10 11 0 20 4 20 9 0 6 26 10 58 10 66 0 187 17 212 31 10
5 58 14 106 20 122 14 135 13 128 -5 -12 -30 44 -13 90 28 14 12 37 17 78 17
32 0 58 4 58 10 0 6 28 10 64 10 36 0 68 4 71 10 3 6 35 10 71 10 36 0 64 4
64 10 0 6 17 10 39 10 21 0 59 3 85 6 71 10 36 23 -64 25 -83 1 -84 1 -45 14
l40 12 -33 7 c-18 4 -50 5 -72 1 -33 -6 -40 -4 -40 9 0 13 12 16 60 16 33 0
60 4 60 10 0 6 9 10 20 10 11 0 20 5 20 10 0 6 9 10 20 10 11 0 20 5 20 10 0
6 12 10 27 10 15 0 45 7 68 15 22 8 110 26 195 41 85 14 170 28 188 31 19 3
36 11 38 17 3 7 20 10 43 8 33 -3 39 -1 44 20 5 20 13 23 54 24 48 1 93 9 332
59 68 14 139 25 157 25 18 0 36 5 39 10 3 6 26 10 51 10 24 0 44 5 44 10 0 6
20 10 45 10 25 0 45 5 45 10 0 6 28 10 64 10 36 0 68 5 71 10 3 6 20 10 37 10
50 0 108 21 108 40 0 13 7 16 33 13 23 -3 28 -2 17 6 -8 5 -18 7 -22 5 -4 -3
-8 0 -8 7 0 7 10 9 30 6 16 -4 32 -2 35 3 3 6 19 10 36 10 16 0 29 4 29 8 0 4
12 9 27 10 15 1 30 8 35 15 6 9 8 9 8 0 0 -7 7 -13 15 -13 8 0 15 5 15 10 0 6
16 10 35 10 19 0 35 4 35 8 0 4 15 9 33 10 38 3 70 8 99 18 11 3 43 10 72 15
28 4 74 13 101 19 28 6 65 14 83 17 18 3 35 9 38 14 3 5 23 9 45 9 21 0 39 5
39 10 0 6 13 10 29 10 16 0 32 6 34 13 4 10 6 10 6 0 1 -15 41 -18 41 -3 0 6
22 10 49 10 29 0 51 5 53 12 3 7 26 11 66 9 38 -1 62 2 62 8 0 7 24 11 59 11
33 0 62 4 65 9 3 4 30 11 60 14 31 3 61 9 68 13 7 5 18 9 23 11 60 12 115 29
115 35 0 5 18 8 39 8 22 0 43 5 46 10 3 6 28 10 56 10 27 0 49 5 49 10 0 6
-20 10 -45 10 -25 0 -45 5 -45 10 0 6 23 10 50 10 28 0 50 -4 50 -10 0 -5 20
-10 45 -10 25 0 45 5 45 10 0 6 -20 10 -45 10 -25 0 -45 5 -45 10 0 6 20 10
44 10 24 0 46 4 48 9 2 6 24 11 51 12 26 2 47 8 47 13 0 7 -19 10 -50 8 -27
-2 -50 -8 -50 -13 0 -5 -22 -9 -50 -9 -27 0 -50 -4 -50 -10 0 -5 -20 -10 -44
-10 -25 0 -48 -4 -51 -10 -3 -5 -26 -10 -50 -10 -24 0 -47 -4 -50 -10 -3 -5
-26 -10 -51 -10 -24 0 -44 -4 -44 -9 0 -5 -19 -11 -42 -14 -24 -3 -63 -10 -88
-16 -195 -44 -279 -62 -327 -68 -24 -3 -43 -9 -43 -14 0 -5 -22 -9 -50 -9 -27
0 -50 -4 -50 -10 0 -5 -22 -10 -50 -10 -27 0 -50 -4 -50 -10 0 -5 -20 -10 -44
-10 -25 0 -48 -4 -51 -10 -3 -5 -24 -10 -46 -10 -21 0 -47 -4 -57 -9 -20 -10
-171 -41 -257 -51 -33 -4 -85 -15 -115 -25 -30 -9 -72 -19 -92 -22 -21 -3 -38
-9 -38 -14 0 -5 -27 -9 -61 -9 -37 0 -58 4 -54 10 3 5 19 10 34 10 15 0 31 4
36 9 6 5 36 12 69 16 32 3 80 15 106 25 26 10 51 16 54 13 3 -4 6 -1 6 5 0 6
16 14 35 18 19 3 38 10 41 15 3 5 21 9 40 9 19 0 34 5 34 10 0 6 20 10 45 10
25 0 45 5 45 10 0 9 -49 15 -92 12 -10 -1 -18 3 -18 8 0 6 13 10 28 10 16 0
55 9 87 20 32 11 69 20 83 20 27 0 126 26 154 41 10 5 40 9 68 9 27 0 50 5 50
10 0 6 15 10 34 10 19 0 38 5 41 10 3 6 24 10 45 10 21 0 42 5 45 10 3 6 23
10 43 10 20 0 46 7 56 15 11 8 34 15 50 16 17 0 25 3 18 6 -6 2 -10 8 -7 13 8
13 -38 -1 -57 -18 -12 -10 -29 -13 -52 -9 -24 4 -39 1 -47 -9 -8 -10 -15 -12
-23 -4 -13 13 -79 13 -71 0 4 -6 -10 -10 -34 -10 -23 0 -41 -4 -41 -10 0 -5
-21 -10 -46 -10 -27 0 -43 -4 -39 -10 4 -6 -15 -10 -49 -10 -31 0 -56 -4 -56
-9 0 -5 -17 -11 -37 -14 -106 -16 -257 -48 -268 -57 -11 -8 -57 -18 -122 -27
-24 -3 -43 -9 -43 -14 0 -5 -15 -9 -34 -9 -19 0 -38 -4 -41 -10 -3 -5 -21 -10
-40 -10 -19 0 -37 -4 -40 -10 -3 -5 -21 -10 -40 -10 -19 0 -37 -5 -40 -11 -4
-6 -23 -9 -43 -7 -22 2 -37 -2 -40 -10 -2 -7 -20 -12 -42 -12 -21 0 -42 -5
-45 -11 -4 -6 -19 -7 -36 -4 -18 4 -29 3 -29 -4 0 -6 -11 -11 -23 -11 -13 0
-50 -8 -83 -19 -32 -10 -75 -19 -94 -20 -19 -1 -37 -7 -41 -12 -4 -8 -8 -7
-12 2 -4 10 -6 10 -6 2 -1 -8 -16 -13 -41 -13 -22 0 -40 -4 -40 -10 0 -5 -9
-10 -19 -10 -11 0 -87 -18 -168 -41 -164 -45 -218 -58 -280 -66 -24 -3 -43 -9
-43 -14 0 -5 -18 -9 -40 -9 -22 0 -40 -4 -40 -10 0 -5 -20 -10 -45 -10 -25 0
-45 -4 -45 -10 0 -5 -14 -10 -30 -10 -17 0 -38 -4 -48 -9 -18 -9 -123 -37
-209 -55 -28 -6 -55 -15 -59 -19 -4 -4 -20 -7 -35 -7 -15 0 -31 -5 -34 -10 -3
-6 -22 -10 -41 -10 -19 0 -34 -4 -34 -10 0 -5 -15 -10 -34 -10 -19 0 -38 -4
-41 -10 -3 -5 -24 -10 -46 -10 -21 0 -39 -4 -39 -10 0 -5 -18 -10 -39 -10 -22
0 -42 -4 -45 -9 -3 -5 -20 -11 -38 -14 -18 -2 -60 -12 -93 -21 -33 -9 -72 -16
-88 -14 -15 2 -31 -2 -35 -7 -4 -6 -11 -11 -17 -12 -5 -1 -18 -5 -27 -8 -11
-4 -18 -3 -18 4 0 14 -67 15 -75 1 -3 -5 -26 -10 -50 -10 -24 0 -45 -4 -47 -8
-5 -14 -96 -52 -123 -52 -14 0 -25 -4 -25 -9 0 -5 -37 -12 -82 -16 -46 -4 -91
-11 -101 -17 -9 -5 -45 -10 -80 -12 -34 -2 -49 -2 -33 1 16 2 35 11 43 19 8 8
20 14 27 14 6 0 18 9 26 20 9 13 26 20 47 20 18 0 33 5 33 10 0 6 23 10 50 10
28 0 50 5 50 10 0 6 15 10 34 10 19 0 38 5 41 11 5 6 -10 9 -44 8 -28 -2 -51
-7 -51 -12 0 -5 -15 -6 -32 -3 -43 8 -48 9 -85 3 -17 -2 -37 0 -45 4 -8 6 5 9
35 9 26 0 47 3 47 8 0 7 51 27 98 39 12 3 22 9 22 14 0 5 18 9 40 9 22 0 40 5
40 10 0 6 13 10 29 10 17 0 33 5 36 10 3 5 24 10 46 10 24 0 38 4 34 10 -4 6
10 10 34 10 23 0 41 5 41 10 0 6 10 10 23 10 12 0 32 6 43 14 11 8 31 16 44
19 18 3 15 5 -12 6 -21 0 -38 -3 -38 -9 0 -5 -22 -10 -50 -10 -27 0 -50 -4
-50 -10 0 -5 -13 -10 -28 -10 -15 0 -32 -4 -38 -10 -5 -5 -39 -10 -76 -11 -37
-1 -65 -6 -62 -10 3 -5 -22 -9 -55 -9 -34 0 -61 4 -61 10 0 6 -9 10 -20 10
-11 0 -20 -5 -20 -11 0 -7 -14 -10 -35 -7 -24 3 -35 0 -35 -9 0 -7 -11 -13
-25 -13 -14 0 -25 -4 -25 -10 0 -5 -13 -10 -30 -10 -16 0 -30 5 -30 10 0 6 10
10 23 10 18 0 19 2 7 10 -12 8 -10 10 8 10 13 0 20 4 17 10 -4 6 7 10 24 10
18 0 31 5 31 12 0 9 3 9 12 0 12 -12 58 -17 58 -6 0 4 -7 12 -16 19 -14 10 -8
15 41 33 31 12 67 22 78 22 22 -1 22 -1 2 -12 -11 -6 -22 -15 -25 -18 -3 -4
-14 -10 -25 -12 -19 -5 -19 -5 -1 -13 11 -5 21 -3 26 5 4 7 12 10 18 6 17 -10
88 37 84 57 -3 13 3 17 22 17 14 0 26 5 26 10 0 6 15 10 34 10 19 0 38 5 41
10 3 6 15 10 26 10 10 0 27 4 37 9 28 14 87 31 108 31 11 0 29 7 40 15 10 8
27 15 37 15 10 0 16 4 13 9 -3 5 -32 2 -63 -5 -106 -25 -143 -11 -55 20 26 10
55 21 64 27 10 5 25 9 33 9 8 0 15 5 15 10 0 6 14 10 31 10 17 0 28 4 24 10
-3 5 3 10 14 10 11 0 23 5 26 10 3 6 15 10 26 10 10 0 19 5 19 11 0 6 9 9 20
6 11 -3 20 -2 20 2 0 10 92 51 113 51 9 0 17 5 17 10 0 6 9 10 20 10 11 0 20
5 20 10 0 6 9 10 20 10 11 0 20 5 20 10 0 6 14 10 30 10 17 0 30 5 30 10 0 6
-13 10 -30 10 -16 0 -30 -4 -30 -10 0 -5 -13 -10 -30 -10 -16 0 -30 -4 -30
-10 0 -5 -11 -10 -25 -10 -14 0 -25 -4 -25 -9 0 -5 -10 -11 -22 -14 -23 -5
-118 -42 -150 -58 -10 -5 -27 -9 -37 -9 -11 0 -23 -4 -26 -10 -3 -5 -17 -10
-31 -10 -13 0 -24 -4 -24 -10 0 -5 -13 -10 -30 -10 -16 0 -30 -4 -30 -10 0 -5
-16 -10 -36 -10 -21 0 -33 -4 -29 -10 3 -6 -5 -10 -19 -10 -14 0 -28 -4 -31
-10 -3 -5 -15 -10 -26 -10 -10 0 -27 -4 -37 -10 -26 -15 -225 -80 -244 -80
-10 0 -18 -4 -18 -10 0 -5 -9 -10 -19 -10 -11 0 -23 -4 -26 -10 -3 -5 -17 -10
-31 -10 -13 0 -24 -4 -24 -10 0 -5 -13 -10 -29 -10 -17 0 -33 -5 -36 -10 -3
-6 -17 -10 -31 -10 -13 0 -24 -6 -24 -12 0 -9 -4 -8 -10 2 -5 8 -10 10 -10 4
0 -14 -71 -37 -96 -31 -12 3 -7 5 14 6 17 0 32 6 32 11 0 6 9 10 20 10 11 0
20 3 20 8 0 12 60 42 86 42 13 0 24 5 24 10 0 6 9 10 19 10 11 0 23 5 26 10 3
6 17 10 31 10 13 0 24 5 24 10 0 6 10 10 23 10 13 0 27 4 32 9 6 5 36 16 68
26 31 10 57 22 57 26 0 5 14 9 30 9 17 0 30 5 30 10 0 6 14 10 30 10 17 0 30
5 30 10 0 6 11 10 24 10 14 0 28 5 31 10 3 5 17 10 31 10 13 0 24 3 24 8 0 4
27 16 61 26 33 11 62 23 65 28 3 4 14 8 25 8 10 0 19 5 19 10 0 6 9 10 19 10
11 0 23 4 26 10 3 5 17 10 30 10 13 0 27 5 30 10 3 6 15 10 26 10 10 0 19 5
19 10 0 6 14 10 30 10 17 0 30 5 30 10 0 6 -13 10 -30 10 -16 0 -30 5 -30 10
0 6 -14 10 -31 10 -17 0 -28 -4 -24 -10 3 -5 17 -10 31 -10 13 0 24 -4 24 -10
0 -5 -13 -10 -30 -10 -16 0 -30 -4 -30 -10 0 -5 -9 -10 -20 -10 -11 0 -20 5
-20 10 0 6 3 9 8 9 18 -3 32 2 32 12 0 6 -12 9 -27 7 -16 -2 -27 -8 -26 -14 1
-7 -8 -9 -24 -6 -14 3 -28 0 -32 -7 -4 -6 -19 -12 -34 -13 -15 -1 -27 -5 -27
-9 0 -3 -21 -13 -47 -22 -86 -29 -123 -43 -129 -50 -4 -4 -20 -7 -36 -7 -15 0
-28 -3 -28 -8 0 -8 -71 -32 -95 -32 -8 0 -15 -4 -15 -10 0 -5 -13 -10 -30 -10
-16 0 -30 -4 -30 -10 0 -5 -7 -10 -15 -10 -8 0 -23 -4 -33 -9 -9 -6 -51 -22
-92 -36 -41 -14 -83 -30 -92 -36 -10 -5 -25 -9 -33 -9 -8 0 -15 -4 -15 -10 0
-5 -13 -10 -30 -10 -16 0 -30 -4 -30 -10 0 -5 -13 -10 -30 -10 -16 0 -30 -4
-30 -10 0 -5 -11 -10 -25 -10 -14 0 -25 -4 -25 -10 0 -5 -15 -10 -34 -10 -19
0 -38 -5 -41 -10 -3 -6 -14 -10 -24 -10 -9 0 -40 -11 -68 -25 -60 -28 -165
-65 -188 -65 -9 0 -14 -4 -11 -8 2 -4 -9 -9 -25 -10 -34 -3 -40 15 -6 20 12 2
21 9 19 16 -2 11 11 16 31 13 5 -1 6 3 3 7 -8 14 24 46 62 63 17 7 32 17 32
21 0 13 -29 9 -53 -6 -52 -32 -181 -96 -193 -96 -8 0 -14 -4 -14 -10 0 -5 -20
-10 -44 -10 -38 0 -51 -6 -87 -40 -24 -22 -51 -40 -60 -40 -10 0 -21 -4 -24
-10 -3 -5 -19 -10 -35 -10 -16 0 -35 -7 -44 -15 -8 -8 -22 -15 -30 -15 -9 0
-16 -4 -16 -10 0 -5 5 -10 10 -10 6 0 10 -4 10 -10 0 -5 -7 -10 -15 -10 -8 0
-15 5 -15 10 0 6 -9 10 -20 10 -11 0 -20 -4 -20 -10 0 -5 -18 -10 -40 -10 -22
0 -40 -4 -40 -10 0 -5 -11 -10 -25 -10 -14 0 -25 -4 -25 -10 0 -5 -11 -10 -23
-10 -13 0 -57 -16 -97 -36 -69 -33 -160 -59 -160 -45 0 3 -5 -2 -11 -12 -5 -9
-21 -17 -35 -17 -13 0 -33 -4 -44 -10 -11 -5 -29 -14 -40 -20 -11 -5 -29 -10
-40 -10 -11 0 -20 5 -20 10 0 6 11 10 25 10 14 0 25 5 25 10 0 6 11 10 25 10
14 0 35 9 47 20 14 12 36 20 58 20 26 0 45 8 64 25 15 14 34 25 42 25 8 0 24
9 36 20 12 11 28 20 35 20 7 0 13 5 13 10 0 6 -9 10 -20 10 -11 0 -20 -4 -20
-10 0 -5 -13 -10 -30 -10 -16 0 -30 -4 -30 -10 0 -5 -7 -10 -15 -10 -8 0 -15
5 -15 10 0 6 7 10 15 10 8 0 15 5 15 10 0 6 9 10 19 10 11 0 23 5 26 10 4 6
-5 10 -19 10 -14 0 -26 -4 -26 -10 0 -5 -11 -10 -25 -10 -14 0 -25 -4 -25 -10
0 -5 -9 -10 -20 -10 -11 0 -20 -4 -20 -10 0 -5 -6 -10 -13 -10 -7 0 -37 -11
-65 -25 -29 -14 -56 -25 -62 -25 -5 0 -10 -4 -10 -10 0 -5 -9 -10 -19 -10 -10
0 -45 -14 -76 -30 -31 -17 -68 -30 -81 -30 -13 0 -24 -4 -24 -10 0 -5 -9 -10
-20 -10 -11 0 -20 -4 -20 -10 0 -5 -9 -10 -20 -10 -11 0 -34 -9 -52 -20 -18
-11 -43 -20 -56 -20 -13 0 -32 -5 -43 -11 -15 -8 -24 -7 -35 2 -19 15 -31 4
-15 -15 9 -11 8 -15 -4 -20 -11 -4 -14 -2 -9 7 5 9 4 9 -6 0 -7 -7 -25 -10
-40 -7 -17 4 -31 0 -39 -10 -8 -9 -24 -16 -37 -16 -13 0 -24 -4 -24 -10 0 -5
-13 -10 -30 -10 -23 0 -30 4 -30 20 0 10 -9 24 -21 30 -16 9 -18 14 -9 26 7 7
10 21 6 29 -3 9 1 18 9 21 17 7 20 49 5 59 -19 12 -10 69 15 97 27 32 35 34
35 13 0 -8 5 -15 10 -15 6 0 10 -13 10 -30 0 -16 5 -30 10 -30 6 0 10 4 10 9
0 5 9 11 20 14 16 4 20 14 20 51 0 25 -4 46 -10 46 -5 0 -10 -4 -10 -10 0 -5
-9 -1 -20 10 -11 11 -20 33 -20 50 0 17 -5 30 -10 30 -6 0 -9 6 -8 12 2 7 -7
14 -19 16 -13 2 -23 7 -23 11 0 4 -8 18 -17 29 -10 12 -34 43 -53 68 -19 25
-54 67 -77 92 -24 26 -45 55 -49 65 -3 9 -11 17 -19 17 -7 0 -15 9 -18 20 -3
11 -12 20 -21 20 -21 0 -20 -4 9 -36 14 -15 25 -31 25 -36 0 -10 16 -31 42
-55 9 -9 14 -22 11 -28 -2 -7 0 -16 6 -20 6 -3 11 -17 11 -31 0 -14 4 -22 10
-19 6 4 10 -8 10 -29 0 -19 -6 -37 -12 -39 -10 -4 -10 -6 0 -6 6 -1 12 -12 12
-26 0 -14 5 -25 10 -25 6 0 10 9 10 20 0 11 3 20 6 20 15 0 34 -32 34 -59 0
-19 8 -38 20 -48 25 -22 25 -44 0 -76 -11 -14 -20 -37 -20 -51 0 -14 -4 -26
-10 -26 -5 0 -10 -9 -10 -20 0 -11 -4 -20 -10 -20 -5 0 -10 -14 -10 -31 0 -17
-4 -28 -10 -24 -6 3 -10 -5 -10 -19 0 -14 -4 -28 -10 -31 -6 -3 -10 -17 -10
-31 0 -13 -4 -24 -10 -24 -5 0 -10 -7 -10 -16 0 -18 -23 -44 -40 -44 -18 0
-35 47 -22 63 7 8 7 18 2 27 -6 8 -10 33 -10 55 0 30 -3 36 -10 25 -5 -8 -10
-27 -10 -42 0 -16 -4 -28 -10 -28 -5 0 -10 -18 -10 -40 0 -37 -6 -56 -32 -100
-5 -8 -11 -23 -14 -32 -5 -15 -19 -18 -87 -18 -44 0 -78 3 -75 6 11 10 -76 84
-99 84 -13 0 -33 12 -46 26 -45 53 -49 57 -58 43 -11 -18 -21 -5 -21 25 -1 15
-7 26 -19 29 -11 3 -19 12 -19 21 0 9 -4 16 -10 16 -5 0 -10 5 -10 10 0 6 -9
20 -20 32 -11 12 -20 33 -20 47 0 14 -9 37 -20 51 -11 14 -20 33 -20 43 0 18
25 24 35 7 3 -5 17 -10 31 -10 30 0 74 -41 74 -70 0 -31 44 -23 48 8 4 24 -22
62 -43 62 -6 0 -23 6 -38 13 -25 11 -27 17 -27 69 0 31 5 60 11 64 8 4 7 9 -2
16 -11 7 -11 11 -1 15 14 6 17 83 2 83 -5 0 -10 16 -10 35 0 19 -4 35 -10 35
-5 0 -10 6 -10 13 0 18 24 67 33 67 4 0 7 7 7 15 0 24 19 17 26 -9 3 -14 12
-27 20 -30 8 -3 14 -19 14 -40 0 -19 4 -37 9 -40 14 -9 23 42 11 64 -5 10 -10
29 -10 41 0 16 5 20 20 16 22 -6 24 0 20 56 -1 28 4 43 19 56 22 20 27 46 11
56 -5 3 -10 17 -10 31 0 19 6 26 30 31 22 4 30 11 29 27 0 11 -3 15 -6 9 -6
-16 -29 -17 -38 -3 -3 6 -3 19 0 31 6 18 9 19 23 6 10 -9 28 -15 42 -16 47 0
90 -13 90 -27 0 -8 5 -14 10 -14 6 0 10 -6 10 -12 0 -7 29 -42 65 -77 36 -35
65 -70 65 -77 0 -8 5 -14 10 -14 22 0 8 36 -35 85 -24 29 -41 55 -38 59 3 3 2
6 -4 6 -13 0 -38 58 -29 67 3 3 6 1 6 -6 0 -15 25 -41 38 -41 6 0 13 -6 15
-12 4 -10 7 -10 15 0 7 10 11 10 22 -2 7 -9 16 -13 20 -11 5 3 28 -13 52 -35
24 -21 45 -35 46 -29 2 5 -1 15 -6 22 -6 7 -8 18 -4 24 9 15 87 -18 112 -47
10 -11 22 -20 29 -20 6 0 11 -4 11 -10 0 -5 6 -10 14 -10 8 0 22 -10 30 -21 9
-14 21 -19 31 -15 10 3 14 2 10 -5 -4 -5 6 -21 22 -35 24 -20 29 -22 31 -8 2
9 -2 20 -9 24 -20 13 16 44 37 32 11 -6 13 -12 6 -16 -8 -4 -5 -13 8 -26 25
-25 34 -25 27 0 -6 24 15 27 37 5 8 -8 21 -15 29 -15 8 0 20 -7 27 -15 7 -9
29 -15 51 -15 22 0 39 -4 39 -8 0 -4 10 -9 22 -9 13 -1 24 -7 26 -13 3 -9 42
-15 42 -6 0 13 -50 56 -85 74 -44 23 -95 67 -95 82 0 6 -9 10 -21 10 -11 0
-27 7 -36 15 -8 8 -19 13 -24 10 -5 -4 -9 -1 -9 4 0 6 -9 11 -19 11 -10 0 -21
7 -25 15 -3 8 -12 15 -20 15 -7 0 -29 14 -47 30 -21 21 -37 29 -48 24 -13 -6
-12 -8 7 -11 14 -3 22 -12 22 -24 0 -24 -12 -24 -35 1 -13 14 -31 20 -62 20
-23 0 -43 5 -43 10 0 6 -12 10 -26 10 -14 0 -23 4 -19 10 3 5 0 10 -7 10 -7 0
-35 23 -62 50 l-49 50 31 0 c17 0 37 -6 45 -14 16 -16 37 -4 37 21 0 19 7 16
40 -16 17 -16 41 -28 54 -28 14 0 51 -4 83 -7 58 -7 58 -7 33 11 -14 9 -30 18
-37 19 -6 1 -22 11 -34 23 -13 12 -31 21 -41 21 -10 0 -18 4 -18 9 0 5 -13 11
-30 14 -16 4 -40 18 -52 32 -13 15 -32 25 -49 25 -19 0 -30 6 -34 20 -3 11
-11 20 -16 20 -5 0 -9 5 -9 11 0 14 -25 39 -39 39 -6 0 -11 5 -11 10 0 6 -5
10 -10 10 -6 0 -22 12 -36 27 -19 20 -21 28 -12 35 19 12 28 10 28 -7 0 -8 5
-15 10 -15 6 0 10 3 10 6 0 12 -24 49 -36 57 -17 10 -18 44 -1 50 7 4 3 8 -10
12 -28 9 -29 22 -4 30 11 3 18 12 15 20 -3 7 -1 16 5 20 6 3 11 15 11 26 0 14
-7 19 -30 19 -24 0 -28 3 -23 18 4 9 9 19 12 22 3 3 14 15 25 27 16 19 17 25
6 38 -11 14 -10 17 8 22 13 3 22 13 22 24 0 29 -24 23 -38 -10 -9 -21 -18 -28
-32 -24 -14 4 -20 0 -20 -11 0 -10 5 -14 10 -11 6 3 10 -1 10 -9 0 -9 -4 -16
-10 -16 -5 0 -10 -7 -10 -15 0 -8 -4 -15 -10 -15 -5 0 -10 -7 -10 -15 0 -8 -4
-15 -10 -15 -5 0 -10 -13 -10 -28 0 -15 -5 -33 -11 -39 -6 -6 -9 -18 -7 -27 2
-14 7 -13 30 7 15 13 32 35 37 48 9 23 10 23 10 -7 1 -18 -7 -38 -18 -48 -20
-18 -22 -56 -6 -133 5 -22 3 -33 -4 -33 -6 0 -11 4 -11 9 0 4 -10 8 -22 7 -17
-1 -28 9 -40 33 -10 19 -25 39 -35 45 -28 15 -33 27 -33 84 0 33 -4 51 -10 47
-6 -4 -10 8 -10 29 0 19 5 38 10 41 6 3 10 19 10 34 0 15 6 34 13 43 14 18 65
30 73 17 7 -12 54 -11 54 1 0 6 7 10 15 10 8 0 15 5 15 10 0 6 8 10 18 10 14
0 15 2 2 10 -11 7 -7 10 18 10 17 0 32 5 32 11 0 5 5 7 10 4 6 -3 10 -1 10 4
0 16 42 61 57 61 8 0 16 7 19 15 8 20 54 20 54 0 0 -8 -6 -15 -12 -15 -7 0 -4
-8 8 -18 12 -9 25 -26 29 -37 8 -18 9 -17 13 8 3 25 22 40 22 17 0 -15 60 -12
66 4 8 20 44 7 44 -15 0 -12 7 -19 20 -19 20 0 30 35 11 42 -4 1 -12 13 -16
26 -5 19 -3 23 12 22 34 -4 40 0 40 30 0 18 -6 30 -14 30 -7 0 -13 5 -13 10 0
6 -9 10 -19 10 -29 0 -35 17 -9 23 13 4 29 0 40 -10 13 -11 27 -14 55 -8 l38
7 -45 14 c-25 8 -57 14 -72 14 -15 0 -29 4 -32 9 -3 4 -19 11 -36 15 -36 7
-66 31 -50 41 25 15 -8 25 -86 25 -77 0 -84 2 -84 20 0 13 7 20 20 20 11 0 20
-4 20 -10 0 -5 11 -10 25 -10 14 0 25 5 25 10 0 6 12 10 26 10 14 0 32 7 41
15 8 9 35 21 59 27 52 14 57 28 12 28 l-33 1 24 19 c13 11 29 20 37 20 8 0 14
5 14 10 0 6 7 10 15 10 8 0 15 5 15 10 0 6 10 10 23 10 12 0 37 9 56 21 30 18
61 24 154 28 17 1 26 5 22 12 -4 6 -9 8 -12 6 -5 -6 -53 37 -53 47 0 4 18 15
40 25 22 10 37 21 33 24 -3 4 5 7 19 7 14 0 38 6 52 14 28 14 66 11 66 -5 0
-16 22 -9 42 14 13 15 21 18 24 10 12 -27 39 -12 36 18 -1 4 7 5 17 2 12 -3
20 2 24 16 3 14 13 21 28 21 24 0 82 16 111 31 10 5 34 9 53 9 19 0 35 5 35
10 0 6 18 10 39 10 22 0 43 5 46 10 3 6 17 10 30 10 13 0 27 5 30 10 4 7 -13
10 -49 9 -31 -1 -56 -6 -56 -11 0 -4 -27 -8 -60 -8 -33 0 -60 -4 -60 -10 0 -6
-26 -10 -59 -10 -33 0 -63 -4 -66 -10 -3 -5 -31 -10 -61 -10 -34 0 -53 -4 -49
-10 4 -6 -22 -10 -69 -10 -60 0 -76 3 -76 15 0 9 6 12 15 9 10 -4 15 0 15 11
0 9 -4 13 -10 10 -5 -3 -10 -1 -10 4 0 6 8 12 18 12 9 1 22 2 27 4 6 1 18 3
29 3 11 1 16 7 13 16 -3 7 0 19 6 25 21 21 -18 12 -41 -9 -12 -11 -31 -20 -44
-20 -13 0 -34 -9 -48 -20 -14 -11 -31 -20 -37 -20 -7 0 -13 -4 -13 -10 0 -5
-9 -10 -20 -10 -11 0 -20 -4 -20 -10 0 -5 -9 -10 -19 -10 -11 0 -23 -4 -26
-10 -3 -5 -15 -10 -26 -10 -10 0 -19 -4 -19 -10 0 -5 -11 -10 -24 -10 -14 0
-28 -4 -31 -10 -3 -5 -17 -10 -30 -10 -31 0 -23 26 11 34 27 7 33 26 8 26 -8
0 -12 5 -9 10 3 6 -1 10 -9 10 -9 0 -16 -4 -16 -10 0 -5 -12 -10 -28 -10 -15
0 -39 -11 -54 -25 -15 -14 -32 -25 -38 -25 -5 0 -10 -6 -10 -14 0 -17 -119
-17 -137 1 -22 20 -14 31 30 37 71 10 77 12 98 29 10 9 34 17 51 17 l32 0 -23
22 c-21 19 -27 20 -55 10 -18 -7 -49 -12 -69 -12 -20 0 -37 -4 -37 -10 0 -5
-18 -10 -39 -10 -22 0 -43 -4 -46 -10 -6 -10 -55 -14 -55 -4 0 11 29 34 44 34
9 0 28 14 43 30 14 17 28 28 31 26 2 -3 25 9 52 25 26 16 52 29 59 29 6 0 11
5 11 10 0 6 14 10 30 10 17 0 30 5 30 10 0 6 9 10 20 10 11 0 20 5 20 10 0 6
9 10 21 10 12 0 19 5 16 13 -4 13 -46 11 -61 -4 -6 -5 -22 -9 -37 -9 -15 0
-29 -4 -31 -10 -1 -5 -15 -11 -30 -12 -15 -1 -24 -6 -22 -10 3 -4 -9 -8 -25
-8 -17 0 -31 -4 -31 -10 0 -5 -9 -10 -19 -10 -11 0 -23 5 -26 10 -3 6 4 10 16
10 18 0 20 3 11 12 -9 9 -16 8 -30 -5 -10 -9 -22 -14 -25 -10 -4 3 -7 -3 -7
-15 0 -14 -5 -20 -14 -16 -7 3 -31 -4 -52 -15 -63 -32 -89 -31 -129 4 l-29 24
-35 -19 c-20 -10 -45 -21 -56 -25 -33 -11 3 -24 39 -14 17 5 42 9 55 9 l24 0
-23 -20 c-13 -11 -36 -20 -52 -20 -15 0 -28 -4 -28 -10 0 -11 -30 -13 -54 -4
-15 6 -15 8 1 20 16 12 15 13 -14 14 -18 0 -33 -5 -33 -11 0 -7 -9 -9 -21 -6
-12 3 -22 0 -26 -9 -3 -8 -18 -14 -34 -14 -16 0 -29 -4 -29 -10 0 -5 -11 -10
-25 -10 -14 0 -25 -6 -25 -12 0 -10 -2 -10 -9 0 -5 9 -17 11 -37 6 l-28 -7 18
29 c10 16 29 43 42 61 13 17 24 36 24 42 0 15 77 14 83 -1 3 -8 14 -2 31 17
14 17 24 36 21 44 -3 8 4 20 15 28 11 8 20 22 21 31 0 13 2 12 9 -5 8 -21 10
-21 43 -5 19 10 34 18 33 19 -1 1 -14 4 -30 7 -33 6 -46 17 -28 23 22 8 13 21
-18 25 -20 3 -30 0 -30 -9 0 -7 -11 -13 -24 -13 -22 0 -24 3 -21 43 2 23 8 67
12 98 5 30 6 66 2 80 -8 28 -9 27 -15 -31 -3 -25 -10 -46 -15 -48 -5 -2 -9
-15 -9 -28 0 -14 -6 -27 -13 -30 -8 -3 -11 -18 -9 -44 4 -44 -9 -53 -26 -18
-9 19 -11 20 -11 5 -1 -10 -10 -27 -21 -39 -16 -17 -17 -24 -7 -37 10 -12 9
-13 -3 -6 -12 7 -13 6 -2 -7 10 -13 5 -19 -33 -44 -25 -15 -45 -32 -45 -36 0
-4 -9 -8 -20 -8 -11 0 -20 4 -20 10 0 16 23 60 32 60 4 0 8 11 8 25 0 14 5 25
10 25 6 0 10 25 10 55 0 30 -4 55 -10 55 -5 0 -10 -9 -10 -20 0 -11 -4 -20
-10 -20 -5 0 -10 21 -10 46 0 27 4 43 10 39 6 -3 10 1 10 10 0 9 -4 13 -10 10
-6 -3 -10 5 -10 19 0 14 5 28 10 31 6 3 10 21 10 38 0 46 10 75 27 82 19 7 24
3 26 -23 2 -28 19 -18 42 26 11 20 32 47 48 60 15 13 27 30 27 38 0 8 5 14 10
14 6 0 10 8 10 18 0 11 9 27 20 37 17 16 20 16 20 2 0 -9 -4 -19 -10 -22 -13
-8 -13 -75 0 -95 8 -13 10 -12 10 3 0 9 4 17 10 17 5 0 9 6 7 13 -3 16 64 11
75 -6 12 -20 17 -4 19 66 l2 67 39 0 c31 0 38 4 38 19 0 11 -5 23 -10 26 -6 4
-8 11 -4 16 3 5 1 16 -5 23 -6 7 -11 37 -11 67 -1 106 -5 169 -12 169 -4 0 -5
21 -1 47 4 34 3 44 -5 39 -8 -5 -12 4 -12 28 0 20 5 36 10 36 6 0 10 17 10 39
0 30 5 42 25 55 19 12 24 23 20 37 -5 14 -2 19 13 19 11 0 23 6 25 13 3 6 6
-7 6 -31 1 -45 21 -51 21 -6 0 13 5 24 10 24 6 0 10 20 10 44 0 28 7 52 18 66
18 23 20 23 100 10 74 -11 83 -15 88 -37 6 -24 -2 -36 -30 -46 -5 -2 -4 -12 2
-23 6 -10 12 -13 12 -6 0 14 30 17 30 2 0 -25 20 -6 29 27 9 31 7 43 -8 69
-30 51 -28 104 5 104 8 0 14 6 14 13 0 9 3 8 9 -2 5 -8 16 -11 31 -6 16 5 19
10 11 18 -6 6 -11 20 -10 32 0 11 3 14 6 8 6 -15 43 -17 43 -3 0 6 -6 10 -12
11 -7 0 -3 4 10 9 12 5 22 14 22 20 0 5 15 10 34 10 26 0 36 5 41 20 3 11 12
20 18 20 7 0 6 4 -3 10 -11 7 -4 10 26 10 22 0 49 7 60 15 10 8 30 15 43 15
l25 0 -23 21 c-17 16 -29 19 -49 14 -59 -15 -92 -17 -92 -6 0 7 -8 8 -24 1
-14 -5 -52 -10 -85 -11 -34 -1 -61 -6 -61 -11 0 -4 -17 -8 -38 -8 -28 0 -39 4
-39 15 0 8 4 15 9 15 4 0 7 6 5 13 -4 21 38 14 44 -8 6 -20 6 -20 14 0 5 11
17 27 27 36 10 9 18 19 18 23 0 11 43 50 88 80 39 27 56 56 31 56 -5 0 -7 -4
-4 -10 4 -6 -5 -10 -20 -10 -25 0 -32 -2 -92 -34 -17 -9 -39 -13 -49 -9 -11 4
-15 2 -11 -4 8 -13 -42 -5 -60 10 -19 14 -16 51 7 77 12 14 20 18 20 10 0 -10
3 -11 11 -3 8 8 8 17 0 31 -11 21 -4 92 10 92 5 0 9 7 9 15 0 8 -4 15 -10 15
-5 0 -10 5 -10 11 0 6 9 8 20 4 16 -5 20 -2 20 15 0 12 5 18 10 15 6 -3 10 1
10 9 0 9 5 16 10 16 6 0 10 9 10 20 0 11 5 20 10 20 6 0 10 7 10 15 0 8 4 15
9 15 10 0 33 53 35 80 0 10 11 30 24 44 12 15 22 31 22 36 0 6 5 10 10 10 6 0
10 9 10 19 0 11 4 23 10 26 6 3 10 17 10 31 0 13 5 24 10 24 6 0 10 6 10 13 0
7 11 21 25 31 13 10 22 23 19 27 -3 5 11 28 30 51 20 23 36 48 36 55 0 7 5 13
10 13 6 0 10 6 10 13 0 7 9 19 20 27 11 8 20 23 20 34 0 11 3 17 6 13 8 -8 44
25 44 40 0 6 8 18 18 25 25 18 36 48 17 48 -8 0 -15 -9 -15 -20 0 -11 -4 -20
-8 -20 -15 0 -47 -33 -67 -67 -11 -18 -23 -33 -27 -33 -4 0 -8 -7 -8 -15 0 -8
-4 -15 -8 -15 -5 0 -23 -14 -41 -32 -43 -42 -81 -62 -95 -48 -7 7 -6 10 2 10
6 0 16 9 22 20 9 16 8 20 -5 20 -19 0 -95 -78 -95 -97 0 -7 -7 -13 -16 -13
-10 0 -14 -7 -12 -22 2 -14 -2 -22 -9 -20 -7 1 -13 -2 -13 -7 0 -5 -3 -18 -7
-28 -3 -10 12 1 35 24 23 23 44 38 47 32 4 -5 11 -7 16 -4 5 4 9 1 9 -5 0 -7
-9 -14 -19 -17 -11 -3 -22 -16 -25 -29 -4 -14 -11 -22 -17 -19 -5 4 -14 -7
-20 -24 -6 -17 -19 -33 -30 -36 -10 -4 -19 -11 -19 -16 0 -16 -52 -10 -66 9
-12 16 -13 15 -14 -5 0 -13 6 -24 13 -24 6 -1 -6 -5 -28 -9 -22 -4 -42 -6 -44
-4 -2 2 15 28 38 58 22 30 41 60 41 66 0 14 13 13 28 -2 8 -8 12 -9 12 -1 0 6
-6 13 -12 15 -15 5 13 38 33 38 7 0 10 3 6 6 -7 8 17 34 32 34 5 0 11 10 13
23 2 12 9 21 15 20 6 -1 9 6 6 16 -3 13 2 21 16 26 12 3 21 14 21 23 0 10 9
24 20 32 11 8 20 18 20 23 0 9 9 20 68 85 23 25 42 49 42 53 0 4 8 6 17 5 12
0 19 7 21 22 2 12 9 22 17 22 7 0 16 7 19 16 4 10 14 14 26 11 11 -3 18 -2 17
2 -3 9 36 71 45 71 4 0 8 6 8 14 0 22 40 46 76 46 39 0 49 -21 23 -48 -10 -12
-19 -28 -19 -37 0 -8 -4 -15 -9 -15 -5 0 -12 -11 -15 -25 -4 -14 -13 -25 -20
-25 -8 0 -16 -9 -19 -20 -3 -13 0 -20 9 -20 8 0 14 -9 14 -19 0 -11 5 -23 10
-26 6 -3 10 1 10 10 0 17 63 85 79 85 15 0 51 37 51 53 0 8 -6 18 -12 20 -10
4 -10 6 0 6 7 1 10 6 7 11 -3 6 5 10 18 10 17 0 27 -7 32 -22 7 -22 7 -22 12
-3 3 11 11 24 19 28 9 5 14 26 14 57 0 40 3 50 21 55 25 8 79 63 79 81 0 7 15
18 33 23 17 5 25 10 17 10 -8 1 -28 8 -44 16 -22 12 -32 12 -42 4 -11 -9 -18
-8 -29 1 -18 15 -47 6 -39 -14 6 -17 -50 -48 -72 -39 -8 3 -14 -1 -14 -11 0
-9 -4 -16 -10 -16 -14 0 -12 29 3 45 7 7 22 14 33 16 10 2 24 14 29 27 6 15
16 21 28 18 9 -2 17 1 17 8 0 7 11 26 25 42 14 16 25 32 25 37 0 4 11 20 24
35 14 15 33 37 44 50 11 12 24 22 31 22 6 0 11 6 11 14 0 7 14 27 30 44 17 18
30 35 30 38 0 4 13 20 30 36 16 15 30 33 30 38 0 6 4 10 10 10 5 0 6 8 3 17
-5 12 -2 15 9 10 11 -4 14 -1 11 11 -2 10 5 27 16 39 12 12 21 27 21 33 0 5 5
10 10 10 6 0 10 -4 10 -10 0 -5 5 -10 11 -10 8 0 8 4 0 14 -12 14 -4 39 24 72
6 6 19 24 29 39 11 14 28 36 38 47 10 12 21 32 24 45 4 12 10 20 15 17 5 -3 9
4 9 15 0 12 5 21 10 21 6 0 10 7 10 15 0 8 5 15 10 15 6 0 10 7 10 16 0 8 5
12 10 9 6 -3 10 3 10 14 0 12 6 21 14 21 8 0 17 9 21 19 3 11 21 33 40 50 19
17 35 38 35 46 0 9 5 13 10 10 6 -3 10 -1 10 4 0 11 33 54 63 80 9 8 17 19 17
23 0 5 16 24 35 42 19 19 35 39 35 45 0 6 5 11 10 11 6 0 10 9 10 20 0 11 -4
20 -10 20 -5 0 -10 5 -10 10 0 7 6 7 19 1 16 -9 18 -8 14 9 -3 12 0 20 6 20 7
0 9 5 6 10 -3 6 -2 10 4 10 15 0 81 68 81 85 0 8 5 15 10 15 6 0 10 7 10 16 0
8 5 12 10 9 6 -3 10 -1 10 5 0 6 6 18 13 25 28 33 37 45 32 45 -3 0 15 21 40
46 34 33 44 51 39 62 -6 14 -8 13 -11 -6 -3 -12 -9 -20 -14 -17 -5 4 -9 1 -9
-6 0 -7 -15 -27 -34 -45 -19 -18 -31 -35 -28 -38 3 -3 -2 -6 -11 -6 -9 0 -17
-7 -17 -15 0 -8 -4 -15 -8 -15 -5 0 -15 -11 -22 -25 -7 -13 -17 -22 -22 -19
-4 3 -8 -2 -8 -11 0 -10 -12 -29 -27 -43 -16 -15 -46 -49 -68 -77 -21 -27 -43
-53 -48 -56 -5 -4 -3 -9 4 -12 10 -4 8 -6 -4 -6 -18 -1 -57 -31 -40 -31 4 0 3
-4 -3 -8 -5 -4 -21 -25 -34 -47 -13 -22 -32 -47 -42 -56 -10 -9 -18 -23 -18
-32 0 -8 -4 -17 -8 -19 -13 -5 -102 -119 -102 -130 0 -5 -13 -23 -30 -38 -16
-15 -30 -32 -30 -38 0 -5 -21 -32 -47 -60 -27 -28 -55 -60 -63 -73 -22 -32
-59 -69 -70 -69 -6 0 -10 7 -10 16 0 8 5 12 10 9 6 -3 10 0 10 7 0 8 9 20 20
28 11 8 20 22 20 32 0 10 5 18 10 18 6 0 10 7 10 15 0 8 5 15 10 15 6 0 10 7
10 15 0 12 -3 12 -20 -2 -11 -10 -20 -21 -20 -26 0 -5 -13 -22 -30 -37 -16
-15 -30 -31 -30 -35 0 -4 -8 -15 -18 -24 -9 -9 -30 -34 -45 -57 -15 -22 -36
-50 -47 -62 -11 -12 -20 -26 -20 -32 0 -6 -4 -8 -10 -5 -5 3 -10 1 -10 -6 0
-6 -19 -31 -42 -54 -24 -24 -74 -78 -113 -119 -38 -42 -77 -76 -87 -76 -9 0
-19 -6 -21 -12 -4 -10 -7 -10 -14 0 -15 20 -72 -13 -66 -38 9 -33 39 -20 45
20 3 24 4 24 21 -10 11 -21 14 -36 7 -38 -5 -2 -10 -8 -10 -14 0 -6 -9 -18
-19 -27 -11 -10 -21 -24 -23 -31 -4 -19 -24 -40 -38 -40 -6 0 -8 -4 -5 -10 3
-5 -1 -10 -9 -10 -9 0 -16 -6 -16 -14 0 -7 -13 -24 -28 -37 -16 -13 -31 -31
-34 -40 -4 -9 -22 -24 -42 -33 -20 -9 -50 -30 -67 -47 -19 -19 -40 -29 -59
-29 -17 0 -38 -8 -48 -17 -10 -10 -30 -24 -45 -32 -30 -16 -36 -31 -11 -31 8
0 12 5 9 10 -4 6 6 10 24 10 16 0 31 5 33 11 4 11 87 33 96 25 2 -3 -9 -19
-27 -35 -17 -16 -31 -34 -31 -40 0 -19 -103 -131 -120 -131 -6 0 -8 -4 -5 -10
3 -5 -1 -10 -9 -10 -9 0 -16 -4 -16 -8 0 -5 -9 -18 -21 -30 -11 -12 -17 -27
-14 -32 4 -6 3 -9 -2 -8 -5 2 -25 -13 -45 -33 -33 -33 -38 -35 -52 -21 -11 11
-16 12 -16 4 0 -7 5 -12 10 -12 6 0 10 -5 10 -11 0 -6 -7 -8 -16 -5 -11 4 -22
-1 -31 -14 -8 -11 -19 -20 -25 -20 -7 0 -5 5 3 13 8 6 28 32 43 55 15 24 30
41 33 38 9 -8 32 26 33 47 0 9 6 17 13 17 6 0 23 24 37 53 14 28 29 55 34 58
4 4 3 10 -4 14 -13 8 -60 -32 -60 -51 0 -8 -13 -20 -30 -29 -20 -10 -30 -23
-30 -38 0 -18 -2 -19 -10 -7 -13 20 -13 43 0 35 6 -4 10 5 10 19 0 14 4 26 8
26 5 0 22 24 37 53 16 28 32 54 36 57 3 3 8 14 10 25 3 11 20 28 39 37 19 9
31 17 25 18 -7 0 -7 3 0 8 13 9 30 37 51 82 8 19 20 43 25 52 5 10 9 27 9 38
0 11 6 20 14 20 10 0 12 7 8 22 -4 17 -2 20 11 15 11 -4 14 -2 10 9 -3 7 0 14
6 14 6 0 11 5 11 10 0 6 21 42 48 81 26 39 52 78 57 87 6 9 18 24 28 33 9 9
17 19 17 23 0 4 9 16 20 28 11 12 20 16 20 10 0 -7 5 -12 11 -12 5 0 7 5 4 10
-3 6 1 10 9 10 9 0 16 5 16 11 0 6 25 35 55 65 55 55 66 78 43 87 -8 2 6 22
35 51 26 26 47 51 47 57 0 6 5 7 10 4 6 -3 10 1 10 9 0 8 8 21 19 28 10 7 20
28 23 46 4 29 2 32 -16 26 -12 -4 -22 -10 -24 -14 -3 -9 -28 -38 -78 -92 -19
-20 -34 -44 -34 -53 0 -8 -7 -15 -16 -15 -9 0 -18 -9 -21 -20 -3 -11 -12 -20
-21 -20 -8 0 -13 -3 -9 -6 3 -3 -5 -18 -19 -32 -13 -15 -24 -30 -24 -34 0 -4
-13 -21 -30 -36 -16 -16 -30 -35 -30 -41 0 -7 -10 -23 -22 -36 -39 -41 -48
-54 -48 -66 0 -7 -3 -9 -7 -6 -7 7 37 100 50 105 4 2 7 10 7 18 0 8 5 14 10
14 6 0 10 11 10 25 0 14 5 25 10 25 6 0 10 11 10 24 0 13 6 27 13 29 10 4 10
6 0 6 -7 1 -13 6 -13 12 0 5 5 7 10 4 10 -6 14 6 11 37 -1 10 14 45 33 78 20
34 36 65 36 71 0 5 3 9 8 9 8 0 32 48 32 66 0 7 -6 14 -12 17 -8 2 -9 8 -4 13
5 5 11 4 13 -3 7 -20 23 -15 23 7 0 11 -5 20 -12 20 -9 0 -9 3 0 12 7 7 12 20
12 29 0 11 6 16 18 13 21 -5 50 12 39 23 -5 4 -12 1 -17 -7 -5 -8 -11 -12 -14
-9 -6 6 21 69 33 79 10 8 42 64 48 83 3 9 9 17 14 17 5 0 9 9 9 20 0 11 5 20
10 20 6 0 10 9 10 20 0 11 4 20 9 20 5 0 13 9 16 20 3 11 12 26 19 32 15 16
86 146 86 159 0 5 -4 9 -10 9 -5 0 -10 -7 -10 -15 0 -8 -4 -15 -10 -15 -5 0
-10 -9 -10 -20 0 -11 -3 -20 -8 -20 -4 0 -16 -16 -26 -35 -11 -19 -23 -35 -28
-35 -4 0 -8 -8 -8 -18 0 -10 -9 -24 -20 -32 -11 -8 -20 -18 -20 -22 0 -12 -52
-91 -72 -109 -10 -9 -18 -24 -18 -33 0 -9 -4 -16 -10 -16 -5 0 -10 -5 -10 -11
0 -15 -26 -39 -34 -32 -3 4 -6 1 -6 -6 0 -7 -7 -19 -15 -28 -9 -8 -19 -28 -22
-44 -3 -16 -9 -29 -12 -29 -4 0 -15 -19 -26 -42 -10 -24 -21 -45 -24 -48 -11
-9 -31 -50 -31 -63 0 -7 -9 -19 -20 -27 -11 -8 -20 -22 -20 -32 0 -10 -4 -18
-10 -18 -5 0 -10 -8 -10 -18 0 -25 -11 -34 -26 -21 -9 8 -11 5 -7 -10 6 -23
-11 -29 -21 -8 -4 6 -4 -3 -1 -22 4 -29 3 -32 -10 -21 -13 10 -15 9 -15 -8 0
-11 -7 -27 -15 -36 -8 -8 -15 -19 -15 -24 0 -18 -27 -62 -33 -55 -4 3 -7 -2
-7 -12 0 -21 -88 -188 -101 -193 -5 -2 -9 -10 -9 -18 0 -8 -4 -14 -10 -14 -5
0 -10 -7 -10 -15 0 -8 -4 -15 -10 -15 -5 0 -10 -5 -10 -10 0 -6 -9 -20 -20
-32 l-20 -22 0 26 c0 15 6 28 13 31 10 4 10 7 0 18 -11 11 -13 10 -13 -4 0 -9
-4 -17 -10 -17 -5 0 -10 -5 -10 -11 0 -6 -16 -33 -35 -59 -19 -26 -35 -55 -35
-64 0 -9 -4 -16 -10 -16 -5 0 -10 -9 -10 -20 0 -11 -4 -20 -10 -20 -5 0 -10
-7 -10 -16 0 -13 3 -14 15 -4 28 23 29 -16 1 -43 -14 -15 -26 -32 -27 -39 0
-7 -4 -4 -9 7 -8 19 -9 19 -9 -3 -1 -28 -18 -62 -31 -62 -16 0 -11 37 5 44 8
3 15 11 15 18 0 9 -3 8 -10 -2 -8 -12 -10 -10 -10 8 0 13 4 20 10 17 6 -4 10
5 10 20 0 14 4 33 9 43 5 9 20 40 32 67 12 28 27 53 33 57 6 4 7 10 4 14 -10
9 -38 -21 -38 -42 0 -10 -3 -15 -6 -11 -10 9 -27 -13 -58 -75 -16 -32 -33 -58
-38 -58 -4 0 -8 -9 -8 -20 0 -11 -4 -20 -10 -20 -5 0 -10 -11 -10 -25 0 -14
-4 -25 -10 -25 -5 0 -10 -4 -10 -10 0 -5 -21 -42 -47 -82 -27 -39 -56 -83 -65
-97 -9 -14 -17 -36 -17 -48 -1 -13 -5 -23 -11 -23 -5 0 -10 -9 -10 -20 0 -11
-4 -20 -10 -20 -5 0 -10 -7 -10 -15 0 -15 -6 -25 -37 -60 -7 -7 -13 -18 -13
-24 0 -11 -20 -38 -57 -77 -13 -13 -23 -29 -23 -36 0 -8 -9 -20 -20 -28 -12
-8 -20 -26 -20 -41 0 -18 -13 -41 -35 -64 -19 -21 -37 -46 -40 -56 -4 -11 -17
-31 -31 -44 -13 -13 -24 -30 -24 -37 0 -7 -7 -22 -15 -32 -18 -24 -31 -13 -38
31 -4 26 1 38 24 62 16 17 29 38 29 46 0 8 5 15 10 15 6 0 10 5 10 11 0 7 10
21 23 32 15 13 18 21 10 24 -7 3 -13 15 -13 28 0 18 -4 22 -20 18 -14 -4 -20
-14 -20 -34 0 -16 -4 -29 -10 -29 -5 0 -10 -6 -10 -14 0 -8 -13 -20 -30 -28
-16 -7 -30 -16 -30 -20 0 -5 -16 -8 -35 -8 -19 0 -35 -2 -35 -5 0 -14 35 -43
46 -38 10 4 14 -4 14 -27 0 -27 -3 -30 -20 -25 -16 5 -20 2 -20 -14 0 -12 5
-21 10 -21 17 0 11 -25 -10 -48 -11 -12 -20 -35 -20 -52 0 -16 -4 -30 -10 -30
-5 0 -10 -6 -10 -14 0 -17 -31 -31 -39 -18 -3 5 -21 11 -38 14 -28 4 -33 1
-34 -16 -1 -47 -19 -104 -19 -63 0 9 -4 17 -10 17 -5 0 -9 -6 -7 -12 1 -8 -7
-12 -21 -10 -13 2 -32 -4 -43 -14 -13 -12 -28 -15 -54 -11 l-35 6 0 -40 c0
-32 -3 -39 -20 -39 -11 0 -20 -7 -20 -15 0 -8 -4 -15 -9 -15 -5 0 -14 -12 -19
-27 l-10 -28 -1 28 c-1 15 4 27 9 27 6 0 10 11 10 25 0 29 -24 33 -54 10 -16
-12 -22 -12 -38 -1 -17 12 -22 11 -44 -11 -13 -13 -24 -26 -24 -29 0 -3 -7
-12 -15 -20 -19 -20 -19 -5 1 21 9 12 12 30 8 47 -5 24 -2 28 17 28 21 0 21 1
-7 28 -16 15 -35 27 -41 27 -15 0 -16 4 -8 30 15 48 36 85 46 85 8 0 8 4 0 14
-10 11 -8 16 8 21 12 3 21 11 21 16 0 5 8 9 18 9 10 0 24 9 32 20 8 11 18 20
23 20 5 0 27 20 49 45 22 25 49 45 59 45 11 0 18 -4 14 -9 -3 -5 4 -12 15 -16
29 -9 29 -95 0 -113 -11 -7 -20 -21 -20 -31 0 -11 -4 -23 -10 -26 -14 -9 -13
-78 2 -93 8 -8 16 -6 30 10 10 12 18 25 18 30 0 4 8 8 18 8 22 0 47 42 39 64
-4 9 -1 28 5 41 9 19 9 28 0 37 -7 7 -12 20 -12 31 0 10 -4 16 -9 13 -13 -8
-23 23 -13 41 11 18 22 19 33 1 7 -10 12 -11 29 0 11 6 28 12 39 12 20 0 35
25 24 42 -3 7 -1 8 5 4 8 -5 12 0 12 12 0 11 11 30 25 43 13 13 25 30 25 37 0
6 5 12 10 12 6 0 10 5 10 10 0 6 -13 10 -30 10 -16 0 -30 5 -30 10 0 6 -9 10
-20 10 -11 0 -20 -4 -20 -10 0 -5 -11 -10 -25 -10 -14 0 -25 -4 -25 -9 0 -5
-21 -19 -46 -32 -26 -12 -62 -37 -81 -56 -34 -33 -63 -43 -63 -22 0 6 -13 8
-30 5 -36 -5 -40 14 -10 44 11 11 20 25 20 31 0 13 27 41 36 37 11 -5 29 30
21 39 -5 4 -12 1 -18 -7 -8 -13 -10 -13 -19 0 -13 20 -13 26 5 44 8 8 15 21
15 29 0 8 7 18 16 21 8 3 12 10 9 16 -3 5 -1 10 4 10 6 0 11 7 11 16 0 9 13
28 28 42 30 29 64 91 56 104 -3 4 2 8 11 8 9 0 13 5 10 10 -3 6 1 10 10 10 14
0 14 2 1 23 -13 19 -13 26 1 55 8 17 19 32 24 32 5 0 9 16 9 35 0 22 8 44 20
57 11 12 20 28 20 35 0 7 5 13 10 13 6 0 10 6 10 14 0 8 6 21 13 28 7 7 14 16
15 21 1 4 2 8 3 10 0 1 2 10 4 19 5 26 54 126 65 133 6 3 10 13 10 21 0 12 -3
12 -20 2 -11 -7 -20 -21 -20 -30 0 -10 -4 -18 -10 -18 -5 0 -10 -8 -10 -17 0
-17 -22 -49 -70 -100 -11 -12 -20 -29 -20 -38 0 -8 -4 -15 -10 -15 -5 0 -10
-9 -10 -20 0 -11 -4 -20 -10 -20 -5 0 -10 -7 -10 -15 0 -8 -4 -15 -10 -15 -5
0 -10 -4 -10 -10 0 -5 -11 -26 -25 -46 -15 -22 -25 -51 -25 -73 -1 -32 -2 -34
-14 -19 -7 10 -16 15 -19 11 -11 -10 -8 -25 3 -18 19 12 10 -42 -10 -60 -11
-10 -20 -24 -20 -32 0 -8 -4 -11 -10 -8 -6 4 -10 -7 -10 -25 0 -27 -15 -66
-31 -80 -3 -3 -15 -21 -27 -40 -11 -19 -33 -47 -47 -62 -14 -15 -25 -32 -25
-38 0 -5 -4 -10 -10 -10 -5 0 -10 4 -10 9 0 6 5 13 10 16 5 3 10 15 10 26 0
11 5 17 10 14 6 -3 10 -1 10 5 0 6 14 31 30 55 26 38 29 50 24 85 -4 27 -3 40
5 40 6 0 11 -9 11 -21 0 -11 5 -17 10 -14 7 4 7 12 0 25 -15 29 -12 40 13 41
12 0 16 3 10 6 -15 6 -17 39 -3 48 6 3 10 17 10 31 0 14 4 22 10 19 6 -3 10 3
10 14 0 12 5 21 10 21 6 0 10 11 10 25 0 14 -4 25 -10 25 -5 0 -10 -9 -10 -20
0 -11 -4 -20 -10 -20 -5 0 -10 -7 -10 -15 0 -8 -4 -15 -10 -15 -5 0 -10 -11
-10 -25 0 -14 -4 -25 -10 -25 -5 0 -10 -6 -10 -14 0 -7 -16 -31 -35 -52 -19
-21 -35 -44 -35 -52 0 -7 -4 -10 -10 -7 -5 3 -10 -3 -10 -15 0 -17 -4 -20 -20
-15 -16 5 -20 2 -20 -14 0 -12 -4 -21 -10 -21 -5 0 -10 11 -10 25 0 14 5 25
10 25 6 0 10 16 10 35 0 19 5 35 10 35 6 0 10 7 10 16 0 8 4 13 8 10 5 -3 9
17 11 44 1 26 -3 51 -9 55 -6 4 -10 -6 -10 -24 0 -17 -4 -31 -10 -31 -5 0 -10
-5 -10 -12 0 -18 -74 -167 -83 -168 -9 0 -3 70 9 109 6 21 4 23 -10 18 -13 -5
-19 -1 -23 13 -10 37 -23 20 -23 -30 0 -29 -5 -50 -11 -50 -7 0 -10 -38 -9
-112 2 -148 2 -147 -10 -128 -8 13 -10 13 -10 -2 0 -9 5 -18 12 -20 6 -2 8
-10 4 -17 -6 -9 -11 -9 -22 0 -8 6 -17 9 -21 5 -8 -8 -29 27 -51 87 -4 9 -7
-21 -7 -68 0 -47 3 -85 7 -85 12 0 10 -98 -2 -105 -5 -3 -10 -15 -10 -26 0
-10 -4 -19 -10 -19 -5 0 -10 7 -10 15 0 8 -5 15 -11 15 -7 0 -9 -10 -7 -24 3
-16 1 -23 -7 -19 -8 2 -20 -14 -30 -41 -10 -25 -22 -46 -26 -46 -5 0 -9 -7 -9
-16 0 -17 -36 -54 -52 -54 -10 0 -11 24 -1 34 4 4 8 15 8 24 6 85 7 88 14 62
4 -14 6 21 3 76 -3 69 -1 103 7 108 6 4 11 31 12 59 0 56 20 161 32 173 4 4 7
39 7 78 0 50 3 66 10 56 7 -11 10 1 10 42 0 31 5 60 10 63 6 3 10 22 10 41 0
19 5 34 10 34 6 0 10 18 10 39 0 26 11 60 31 96 17 31 33 71 36 88 3 18 14 50
24 71 10 22 19 47 19 56 0 8 9 22 20 30 11 8 20 22 20 32 0 10 5 18 10 18 6 0
10 13 10 29 0 16 6 31 14 34 11 5 13 -1 9 -27 -6 -37 15 -66 49 -66 14 0 18 5
14 16 -9 23 14 94 31 94 8 0 13 12 13 30 0 17 -4 30 -10 30 -5 0 -10 9 -10 20
0 13 5 18 16 13 10 -4 17 1 21 16 3 11 9 21 14 21 5 0 9 11 9 24 0 13 6 27 13
30 6 3 2 3 -10 0 -20 -5 -23 -1 -23 25 0 17 5 31 10 31 6 0 10 11 10 25 0 14
5 25 10 25 6 0 10 9 10 20 l0 20 -20 -20 c-11 -11 -20 -24 -20 -30 0 -5 -4
-10 -8 -10 -5 0 -22 -25 -37 -55 -16 -30 -32 -55 -35 -55 -3 0 -11 -15 -18
-32 -8 -18 -22 -50 -33 -71 -10 -22 -19 -45 -19 -53 0 -8 -4 -14 -10 -14 -5 0
-10 -9 -10 -20 0 -11 -4 -20 -10 -20 -5 0 -10 11 -10 25 0 14 6 25 13 25 8 0
8 3 1 8 -7 5 -7 14 1 29 7 13 15 20 18 16 4 -3 7 12 7 35 0 23 5 42 10 42 6 0
10 8 10 18 0 9 9 53 21 97 21 85 26 124 34 245 6 92 14 138 26 146 10 6 12 45
3 68 -8 22 -34 2 -34 -27 0 -23 -27 -123 -41 -149 -5 -10 -9 -27 -9 -38 0 -12
-4 -18 -10 -15 -5 3 -10 17 -10 31 0 13 -5 24 -11 24 -8 0 -10 -20 -7 -62 2
-35 3 -53 1 -40 -8 41 -23 12 -23 -43 0 -30 -4 -57 -10 -60 -5 -3 -10 -24 -10
-46 0 -21 -4 -39 -10 -39 -5 0 -10 -9 -10 -19 0 -11 -4 -23 -10 -26 -5 -3 -10
-17 -10 -30 0 -13 -6 -44 -14 -67 -8 -24 -16 -72 -18 -106 -1 -35 -6 -66 -10
-68 -5 -3 -8 -23 -8 -45 0 -21 -4 -39 -10 -39 -5 0 -10 -18 -10 -40 0 -22 -4
-40 -10 -40 -5 0 -10 -9 -10 -20 0 -17 -47 -123 -79 -180 -5 -8 -15 -28 -22
-43 -7 -16 -19 -26 -28 -25 -13 3 -17 21 -19 86 -2 56 1 82 8 77 6 -3 10 3 10
14 0 12 -4 21 -10 21 -5 0 -10 9 -10 20 0 11 5 20 10 20 6 0 10 11 10 24 0 14
5 28 10 31 6 3 10 17 10 30 0 27 25 129 36 147 4 6 9 34 11 61 2 28 8 58 13
68 13 24 13 119 0 119 -5 0 -10 7 -10 15 0 8 6 12 14 9 15 -6 26 23 26 69 0
15 5 27 10 27 6 0 10 16 10 35 0 19 5 35 10 35 6 0 10 18 10 40 0 22 4 40 9
40 5 0 11 15 14 33 2 17 16 75 31 127 48 170 59 232 45 256 -7 13 -9 34 -4 51
4 15 9 47 12 71 3 23 9 42 14 42 5 0 9 18 9 40 0 22 5 40 10 40 6 0 10 21 10
46 0 27 4 43 10 39 6 -4 10 12 10 39 0 25 5 46 10 46 6 0 10 12 10 26 0 14 4
33 9 42 5 9 11 33 15 52 3 19 12 67 21 105 8 39 18 95 21 125 4 30 11 57 15
58 12 5 11 92 -1 92 -5 0 -10 -15 -10 -34z m1409 -2929 c-14 -12 -24 -28 -22
-34 2 -6 -3 -18 -12 -26 -8 -9 -15 -19 -15 -24 0 -5 -9 -15 -20 -23 -11 -8
-20 -20 -20 -26 0 -6 -7 -17 -15 -24 -9 -7 -25 -34 -37 -59 -11 -25 -30 -56
-41 -69 -18 -19 -19 -25 -7 -32 11 -7 12 -14 2 -34 -6 -14 -16 -26 -22 -26 -5
0 -10 -12 -10 -26 0 -14 -4 -23 -10 -19 -5 3 -10 -3 -10 -15 0 -44 -70 -135
-85 -111 -3 6 1 14 9 17 20 8 20 18 -1 39 -15 16 -14 21 20 85 21 37 37 77 37
89 0 12 4 19 10 16 6 -3 10 3 10 14 0 12 5 21 10 21 6 0 10 11 10 24 0 14 5
28 10 31 6 3 10 15 10 26 0 10 -4 19 -10 19 -5 0 -10 -7 -10 -15 0 -8 -4 -15
-10 -15 -5 0 -10 -9 -10 -20 0 -11 -4 -20 -10 -20 -5 0 -10 -7 -10 -15 0 -8
-4 -15 -10 -15 -5 0 -10 -9 -10 -20 0 -11 -8 -34 -19 -52 -48 -85 -57 -98 -63
-98 -5 0 -8 -9 -8 -20 0 -11 -4 -20 -10 -20 -5 0 -10 -7 -10 -15 0 -8 -3 -15
-7 -16 -5 0 -19 -2 -33 -4 -14 -2 -19 -1 -12 1 14 6 17 74 3 74 -5 0 -11 -6
-14 -12 -3 -10 -9 -8 -24 5 -11 9 -23 14 -26 10 -4 -3 -7 -1 -7 5 0 7 7 12 16
12 8 0 13 4 10 9 -3 5 2 12 11 15 9 4 20 2 23 -5 5 -6 12 2 19 21 9 27 8 30
-3 21 -10 -8 -16 -8 -25 3 -9 11 -9 15 1 18 21 7 48 -3 48 -19 0 -8 5 -11 10
-8 6 3 10 15 10 26 0 10 5 19 10 19 6 0 10 6 10 13 0 7 9 19 20 27 23 17 26
30 6 30 -21 0 -30 20 -17 33 8 8 11 7 12 -3 0 -10 4 -7 9 5 8 19 9 19 9 -2 1
-13 6 -23 12 -23 7 0 9 10 5 24 -5 21 -2 25 24 31 24 5 30 12 31 33 1 17 3 21
6 10 7 -29 33 4 33 42 0 27 22 63 39 66 3 0 19 6 35 13 16 6 31 9 35 6 8 -9
-20 -24 -34 -19 -8 4 -11 -4 -10 -20 3 -26 -8 -35 -20 -16 -3 6 -10 10 -16 10
-14 0 -11 -30 6 -47 14 -14 18 -13 34 6 10 12 26 21 35 21 13 0 16 5 11 20 -5
16 -3 19 12 13 10 -3 15 -3 11 2 -8 8 -2 15 51 58 23 19 37 25 44 18 7 -7 3
-18 -14 -34z m-1336 -679 c9 -5 9 -10 -1 -20 -18 -18 -15 -42 8 -63 13 -11 25
-15 37 -10 15 7 13 9 -12 15 -32 6 -36 28 -9 43 8 5 19 20 24 33 6 16 17 24
32 24 19 0 20 -2 8 -10 -13 -9 -13 -12 4 -25 10 -7 15 -18 11 -24 -3 -6 -1
-11 4 -11 6 0 11 13 11 29 0 24 3 28 20 24 11 -3 20 -9 20 -14 0 -5 3 -8 8 -8
4 1 13 1 20 0 19 -2 -9 -41 -30 -41 -9 0 -19 -6 -22 -12 -5 -10 -7 -10 -12 0
-3 6 -12 12 -19 12 -7 0 -16 6 -18 13 -3 6 -6 -5 -6 -26 -1 -28 -9 -45 -30
-66 -36 -35 -76 -47 -85 -25 -10 27 -7 44 9 44 8 0 15 5 15 10 0 13 -7 12 -55
-4 -30 -11 -42 -11 -47 -3 -15 24 -7 46 20 59 22 11 26 19 24 43 -2 21 6 39
25 60 l28 30 3 -35 c2 -19 9 -38 15 -42z m670 -569 c-1 -13 1 -31 3 -39 5 -13
7 -12 15 3 6 9 7 26 4 37 -5 14 -1 18 14 17 17 -1 19 -9 20 -64 0 -35 5 -72
11 -84 14 -25 -4 -79 -27 -79 -7 0 -18 -10 -23 -22 -9 -25 -11 -21 -14 37 -2
29 -20 30 -24 0 -2 -14 -8 -25 -13 -25 -12 0 -12 -57 1 -65 6 -4 10 5 10 20 0
15 4 24 10 20 17 -11 11 -47 -11 -66 -22 -19 -20 -52 2 -47 19 5 21 -19 3 -26
-10 -4 -22 1 -30 11 -12 17 -13 17 -14 -4 0 -12 -4 -24 -9 -27 -11 -7 -13 166
-2 174 5 3 5 14 0 25 -6 17 -8 17 -8 3 -1 -10 -5 -18 -10 -18 -5 0 -12 8 -16
18 -6 15 -8 14 -20 -8 -8 -14 -14 -22 -15 -18 0 3 -3 13 -6 21 -3 9 3 16 15
20 12 3 21 13 21 25 0 11 7 25 15 32 8 7 15 19 15 26 0 8 5 14 10 14 6 0 10 7
10 16 0 8 4 13 9 10 5 -3 11 13 15 36 4 22 9 45 12 50 11 17 29 1 27 -23z
m-2157 -266 c-13 -121 -23 -174 -34 -185 -7 -7 -12 -25 -12 -40 0 -19 -5 -28
-16 -28 -20 0 -44 -24 -44 -44 0 -9 -4 -16 -9 -16 -6 0 -11 -15 -13 -32 -2
-25 -7 -32 -20 -30 -10 2 -18 -3 -18 -12 0 -9 -7 -12 -21 -9 -11 3 -16 9 -11
12 12 8 52 134 52 164 0 9 5 17 10 17 6 0 10 6 10 14 0 7 6 19 14 25 8 7 12
22 9 34 -4 18 -3 19 6 7 9 -12 11 -9 12 15 0 17 5 41 10 55 7 21 8 20 4 -10
-5 -41 9 -113 18 -90 13 34 24 129 14 123 -11 -7 -8 2 15 49 20 42 30 34 24
-19z m1675 -521 c-20 -7 -11 -24 9 -19 17 4 20 0 20 -26 -1 -24 -11 -43 -40
-72 -22 -22 -40 -47 -40 -57 0 -10 -4 -18 -10 -18 -5 0 -10 -9 -10 -19 0 -11
5 -23 10 -26 6 -3 10 0 10 7 0 20 34 38 51 27 10 -6 10 -9 2 -9 -7 0 -13 -9
-13 -20 0 -30 -21 -68 -40 -73 -15 -4 -20 4 -25 44 -4 27 -10 47 -14 45 -11
-7 3 -111 15 -109 5 1 10 -7 10 -17 0 -15 -3 -16 -14 -8 -10 9 -14 6 -19 -10
-3 -12 -12 -22 -19 -22 -17 0 -18 31 -3 116 8 47 15 63 30 67 16 4 19 14 19
55 0 28 4 52 9 54 5 2 11 14 13 28 1 14 6 27 10 30 3 3 8 14 10 25 1 11 10 28
18 38 14 17 15 17 18 -5 2 -12 -1 -24 -7 -26z m-1801 -23 c0 -31 -4 -48 -10
-44 -6 4 -10 -8 -10 -29 0 -25 -4 -36 -15 -36 -8 0 -15 -4 -15 -10 0 -5 -9
-10 -21 -10 -11 0 -18 -4 -14 -9 3 -5 1 -12 -5 -16 -16 -10 -12 -23 7 -21 12
1 17 -7 17 -29 0 -37 -21 -40 -50 -7 -14 16 -24 20 -28 13 -4 -6 -17 -11 -29
-11 -16 0 -18 3 -9 9 8 5 13 29 14 62 0 30 3 59 6 64 4 6 8 19 9 29 4 25 22
46 39 46 8 0 14 5 14 10 0 6 7 10 15 10 8 0 15 4 15 9 0 5 12 12 28 14 15 2
30 5 35 6 4 0 7 -22 7 -50z m-603 -538 c29 -1 19 -31 -11 -31 -34 0 -66 -12
-60 -21 3 -5 -2 -9 -10 -9 -9 0 -16 -5 -16 -11 0 -8 -4 -8 -14 0 -10 9 -13 7
-13 -6 0 -44 -2 -45 -45 -38 -29 4 -38 3 -29 -4 12 -8 11 -12 -3 -27 -15 -14
-22 -15 -37 -6 -10 7 -28 12 -39 12 -11 0 -20 5 -20 11 0 6 -7 8 -15 5 -9 -3
-18 1 -21 8 -3 8 -14 16 -25 19 -13 4 -19 14 -19 35 0 32 27 52 42 30 6 -10
10 -10 17 2 20 31 143 43 318 31z m3278 -501 c-3 -5 1 -10 9 -10 8 0 18 5 21
10 3 6 12 10 18 10 7 0 6 -4 -3 -10 -12 -8 -9 -10 13 -10 29 0 57 -20 57 -39
0 -16 -34 -47 -69 -66 -17 -8 -31 -19 -31 -24 0 -4 -10 -13 -23 -20 -19 -10
-31 -9 -65 2 -40 14 -47 11 -43 -15 0 -5 -8 -8 -19 -8 -18 0 -25 -10 -21 -32
0 -5 -17 -8 -39 -8 -22 0 -40 4 -40 9 0 5 -18 16 -39 25 -33 13 -38 19 -34 37
4 14 2 20 -4 16 -6 -4 -13 0 -17 8 -3 9 -19 15 -38 16 l-33 1 34 14 c18 8 40
13 47 10 9 -3 14 2 14 14 0 15 7 20 25 20 14 0 25 -4 25 -10 0 -5 -7 -10 -16
-10 -13 0 -14 -3 -5 -13 6 -8 8 -17 4 -20 -3 -4 10 -7 30 -7 26 0 37 -4 37
-15 0 -27 44 -17 57 12 15 31 10 41 -11 24 -13 -11 -13 -9 -3 13 14 31 23 33
30 6 3 -11 11 -20 19 -20 10 0 9 3 -2 10 -11 7 -7 10 18 10 18 0 41 7 50 16
14 15 14 17 -2 26 -13 8 -15 13 -5 24 13 16 64 20 54 4z m-4447 -20 c2 -6 21
-10 43 -10 32 0 39 -4 39 -19 0 -11 10 -22 23 -25 21 -7 21 -7 2 -15 -11 -5
-23 -7 -27 -4 -4 2 -5 -9 -2 -25 5 -23 1 -32 -21 -46 -26 -17 -27 -17 -32 3
-7 29 -23 26 -23 -3 0 -14 -4 -28 -10 -31 -5 -3 -10 -24 -10 -45 0 -21 -4 -42
-10 -45 -6 -3 -10 5 -10 19 0 13 -4 26 -10 28 -5 2 -12 18 -14 36 -5 48 -16
52 -16 5 0 -25 -7 -48 -19 -62 -19 -22 -19 -22 -26 -2 -3 12 -11 21 -16 21 -5
0 -9 12 -9 26 0 14 -4 23 -10 19 -6 -4 -10 12 -10 39 0 25 -4 46 -10 46 -9 0
-15 -36 -11 -68 1 -6 -3 -20 -8 -30 -9 -14 -10 -11 -11 16 0 17 -4 32 -10 32
-15 0 -30 72 -22 110 7 32 11 35 52 41 61 8 184 1 188 -11z m4107 -230 c3 -5
17 -10 29 -10 22 0 23 -3 25 -86 1 -58 -1 -84 -8 -79 -7 4 -11 -7 -12 -29 -1
-20 -3 -40 -4 -46 -1 -5 -3 -13 -4 -17 -1 -5 -6 2 -11 15 -8 20 -13 21 -31 11
-23 -12 -39 0 -39 29 0 7 -5 10 -11 6 -6 -3 -10 1 -9 12 4 36 0 55 -10 49 -5
-3 -10 1 -10 9 0 9 -7 16 -16 16 -21 0 -43 29 -44 57 0 16 8 23 30 28 17 4 30
11 30 16 0 5 13 9 29 9 17 0 33 5 36 10 3 6 10 10 15 10 5 0 12 -4 15 -10z
m-3724 -165 c12 -19 25 -35 29 -35 5 0 12 -9 15 -20 10 -32 25 -23 25 14 0 19
5 38 10 41 6 3 10 0 10 -9 0 -8 4 -16 9 -18 4 -1 12 -13 15 -26 5 -15 3 -24
-8 -28 -19 -7 -21 -35 -4 -52 14 -14 10 -19 -17 -24 -16 -2 -19 2 -17 22 3 24
-1 26 -38 27 -47 2 -70 21 -70 57 0 14 -4 28 -10 31 -5 3 -10 17 -10 31 0 38
36 31 61 -11z m3409 -105 c18 -16 29 -30 25 -30 -4 0 -2 -6 4 -13 6 -8 8 -17
4 -20 -3 -4 -1 -7 5 -7 6 0 12 7 14 16 3 13 6 12 24 -4 11 -11 30 -23 42 -26
21 -7 110 -86 97 -86 -4 0 0 -11 9 -25 20 -31 20 -35 -3 -35 -20 0 -35 -25
-25 -41 9 -14 41 -10 48 6 3 8 12 15 19 15 19 0 31 -119 14 -139 -15 -17 -15
-15 1 -33 14 -17 6 -51 -11 -41 -5 3 -16 -2 -23 -12 -20 -27 -92 -24 -115 4
-10 12 -30 24 -46 27 -17 3 -38 17 -48 30 -20 27 -29 74 -15 74 5 0 4 12 -2
26 -10 20 -9 27 2 34 9 5 20 5 27 -2 8 -6 16 -8 20 -4 3 3 1 6 -5 6 -23 0 -13
46 13 60 23 12 24 15 10 30 -8 9 -15 24 -15 33 0 9 -5 17 -12 17 -9 0 -9 3 0
12 15 15 16 32 2 23 -5 -3 -10 1 -10 10 0 10 -7 15 -17 13 -12 -2 -17 -11 -15
-25 5 -38 -65 -60 -75 -24 -3 12 -9 18 -14 15 -5 -3 -9 11 -9 30 0 20 -4 36
-10 36 -5 0 -10 17 -10 38 l0 37 35 -39 c19 -22 35 -50 35 -63 0 -21 3 -22 20
-13 19 10 19 12 3 38 -10 15 -20 29 -23 32 -7 7 -13 50 -7 50 3 0 19 -13 37
-30z m-46 -455 c12 -8 34 -16 49 -17 15 -1 27 -6 27 -10 0 -4 11 -8 25 -8 14
0 25 -4 25 -10 0 -5 -11 -10 -25 -10 -14 0 -25 -4 -25 -10 0 -5 18 -10 41 -10
37 0 40 -2 34 -22 -4 -13 -9 -31 -11 -40 -3 -9 -21 -27 -41 -39 -19 -12 -40
-35 -45 -50 -10 -28 -31 -38 -42 -20 -3 5 -14 8 -24 6 -9 -1 -11 0 -4 2 13 5
14 9 6 39 -4 16 -12 19 -35 16 -22 -3 -29 0 -29 12 0 10 -4 14 -10 11 -5 -3
-10 -1 -10 6 0 6 -10 20 -22 31 l-22 19 22 6 c16 4 22 13 22 34 0 22 5 29 19
29 11 0 21 -5 23 -11 3 -9 10 -9 26 0 26 14 28 36 5 50 -10 6 -14 11 -10 11 4
0 18 -7 31 -15z m49 -298 c-7 -25 -25 -54 -35 -56 -5 0 -13 -1 -20 -1 -9 0 -9
-3 0 -12 15 -15 16 -58 2 -58 -5 0 -10 -18 -10 -40 0 -43 -8 -48 -54 -30 -16
6 -26 17 -26 29 0 11 -4 23 -10 26 -5 3 -10 24 -10 46 0 37 2 39 30 39 17 0
30 4 30 8 0 4 9 8 20 9 19 2 69 49 70 66 0 5 4 6 9 3 5 -3 7 -16 4 -29z m-512
-82 c-1 -33 -5 -95 -7 -137 -5 -81 2 -92 37 -65 15 11 23 51 9 42 -3 -2 -6 23
-6 55 1 40 5 61 14 65 8 3 16 -3 19 -14 4 -17 8 -18 24 -8 21 13 25 57 7 75
-9 9 -8 12 6 12 24 0 40 -18 52 -61 11 -34 10 -35 -11 -31 -15 2 -22 -1 -22
-12 0 -9 7 -16 15 -16 21 0 69 -53 87 -96 8 -20 24 -45 35 -54 17 -15 28 -50
16 -50 -18 0 -36 15 -36 30 0 11 -4 22 -10 25 -6 4 -10 -7 -10 -24 0 -17 -4
-31 -9 -31 -5 0 -26 -15 -46 -34 -20 -19 -46 -37 -58 -39 -19 -4 54 -12 76 -8
16 2 5 -29 -15 -44 -20 -13 -21 -17 -8 -25 8 -5 11 -10 5 -10 -5 0 -1 -6 9
-12 15 -8 21 -7 28 6 5 9 20 16 33 16 14 0 25 5 25 10 0 6 7 10 15 10 8 0 15
5 15 10 0 18 29 10 35 -10 3 -11 11 -20 16 -20 13 0 11 -37 -2 -45 -6 -4 -8
-22 -4 -46 8 -48 -1 -79 -25 -79 -22 0 -34 28 -20 45 8 9 3 14 -20 18 -23 5
-30 12 -30 29 0 19 -2 20 -10 8 -6 -10 -10 -11 -10 -2 0 6 -8 12 -18 12 -9 0
-23 9 -30 20 -8 13 -23 20 -43 20 -22 0 -32 5 -36 19 -3 11 -15 21 -27 23 -15
2 -20 9 -18 26 2 12 -2 22 -7 22 -6 0 -11 9 -11 19 0 11 -5 23 -10 26 -19 11
-60 84 -60 104 0 11 -9 26 -21 34 -19 14 -21 35 -7 77 31 91 39 122 33 139 -8
26 2 43 23 39 13 -3 16 -14 13 -63z m551 -335 c4 0 8 -7 8 -15 0 -8 5 -15 12
-15 6 0 8 -3 5 -6 -4 -4 5 -20 18 -36 14 -16 25 -37 25 -45 0 -9 11 -26 25
-39 19 -18 25 -33 25 -67 0 -55 -6 -61 -38 -37 -45 36 -49 19 -22 -93 7 -27 9
-51 6 -54 -8 -9 -35 28 -36 49 0 9 -5 18 -11 20 -11 4 -15 100 -4 118 4 7 16
10 26 7 14 -4 19 0 19 15 0 33 -18 56 -50 63 -16 4 -30 11 -30 16 0 5 -8 9
-18 9 -23 0 -48 43 -36 61 4 8 9 22 9 31 1 10 10 27 21 37 19 18 19 18 28 0 5
-11 13 -19 18 -19z m-482 -139 c0 -5 17 -16 38 -24 24 -10 48 -31 67 -61 17
-25 38 -48 48 -52 9 -3 17 -10 17 -15 0 -5 12 -9 26 -9 15 0 23 -4 19 -11 -4
-6 2 -13 13 -16 11 -2 24 -18 29 -36 l10 -32 8 48 c4 26 11 47 16 47 4 0 9 15
11 32 2 22 9 34 21 36 9 2 17 -2 17 -9 0 -6 8 -19 18 -28 10 -9 24 -43 31 -76
7 -33 24 -86 38 -118 25 -58 24 -88 -2 -67 -8 7 -20 8 -27 4 -10 -6 -11 -5 -1
7 11 13 8 18 -15 30 -15 8 -31 20 -35 27 -5 7 -12 10 -18 7 -5 -4 -9 1 -9 10
0 9 -4 13 -10 10 -5 -3 -10 -17 -10 -30 0 -13 5 -27 10 -30 6 -3 10 -15 10
-26 0 -10 5 -19 10 -19 6 0 10 -5 10 -11 0 -5 -4 -7 -10 -4 -5 3 -10 2 -10 -3
0 -13 -84 5 -88 19 -2 5 -10 9 -18 9 -9 0 -12 5 -9 10 3 6 1 10 -4 10 -6 0
-11 17 -11 38 0 25 -3 33 -9 23 -5 -8 -6 -21 -3 -30 5 -13 2 -12 -13 2 -10 11
-14 22 -9 25 5 4 10 21 12 37 l3 30 -19 -24 c-16 -19 -22 -22 -38 -13 -17 10
-17 11 -1 12 23 0 22 22 -3 43 -19 16 -20 16 -20 -8 0 -14 -4 -25 -9 -25 -11
0 -21 25 -21 51 0 10 -4 19 -10 19 -5 0 -10 9 -10 20 0 11 -4 20 -10 20 -5 0
-10 7 -10 15 0 8 -4 15 -8 15 -5 0 -14 16 -22 35 -8 19 -17 35 -22 35 -4 0 -8
14 -8 30 0 23 4 30 20 30 11 0 20 -4 20 -9z m-480 -230 c14 -51 30 -68 30 -31
0 11 5 20 10 20 6 0 10 -9 10 -20 0 -11 -4 -20 -10 -20 -5 0 -10 -13 -10 -29
0 -17 -4 -33 -10 -36 -5 -3 -10 -16 -10 -27 0 -12 3 -19 6 -15 16 16 34 -25
34 -76 0 -43 -4 -56 -17 -62 -29 -12 -62 -14 -68 -4 -4 5 -19 9 -36 9 -16 0
-29 5 -29 10 0 6 -21 10 -46 10 -27 0 -43 4 -39 10 3 6 -1 10 -9 10 -22 0 -20
20 2 21 9 1 20 1 25 0 4 0 7 6 7 14 0 8 6 15 13 15 8 0 7 4 -3 10 -10 6 -11
10 -2 10 6 0 12 11 12 24 0 13 6 26 13 29 14 5 77 123 77 145 0 6 5 12 10 12
6 0 10 7 10 16 0 29 16 5 30 -45z m227 -6 c7 -5 19 -16 27 -22 8 -7 23 -13 33
-13 10 0 25 -9 33 -20 8 -11 21 -20 30 -20 9 0 22 -9 30 -20 8 -11 20 -20 27
-20 7 0 13 -6 13 -14 0 -7 7 -19 15 -26 8 -7 15 -20 15 -30 0 -9 11 -23 25
-30 14 -7 25 -20 25 -28 0 -9 -3 -12 -7 -9 -3 4 -12 2 -20 -4 -9 -9 -13 -8
-13 0 0 6 -7 11 -16 11 -8 0 -12 -4 -9 -10 3 -5 -4 -10 -16 -10 -18 0 -19 -2
-9 -15 7 -8 21 -15 32 -15 17 0 18 -2 4 -15 -9 -9 -31 -14 -58 -14 -24 1 -33
4 -20 6 12 2 22 11 22 20 0 13 -10 15 -72 8 -40 -3 -88 -13 -108 -21 -42 -18
-36 -19 -63 6 -13 13 -31 20 -44 17 -26 -5 -31 19 -13 54 6 11 15 57 20 103 6
45 17 97 26 114 13 27 21 32 47 30 18 -1 37 -7 44 -13z m-376 -9 c15 9 10 -8
-8 -28 -9 -10 -25 -18 -35 -18 -11 0 -16 -4 -13 -10 3 -5 15 -10 26 -10 26 0
24 -16 -3 -24 -18 -5 -20 -8 -9 -15 12 -8 12 -11 0 -23 -8 -8 -23 -31 -34 -51
-15 -29 -26 -37 -47 -37 -22 0 -29 6 -34 28 -4 15 -12 30 -17 34 -15 9 -37 -2
-37 -19 0 -8 -6 -13 -12 -10 -7 2 -13 15 -13 28 0 21 4 24 33 23 21 -1 32 3
32 12 0 8 7 14 15 14 8 0 15 -7 15 -15 0 -17 2 -18 24 -9 9 3 16 10 16 16 0 5
-4 7 -9 4 -5 -3 -11 1 -15 9 -3 9 0 15 9 15 8 0 15 5 15 10 0 6 -9 10 -20 10
-11 0 -20 -4 -20 -8 0 -16 -90 -35 -113 -24 -21 10 -21 11 -2 11 17 1 17 3 5
11 -11 7 -7 10 18 10 17 0 32 3 32 8 0 14 53 33 61 21 4 -7 13 -5 28 7 25 22
95 45 99 32 2 -4 8 -6 13 -2z m-142 -288 c13 -37 -6 -55 -67 -63 -26 -3 -67
-10 -92 -15 -25 -5 -47 -5 -50 0 -3 4 -14 9 -24 11 -20 4 -29 30 -19 55 3 9
13 12 23 9 10 -3 28 3 41 15 20 17 36 20 101 18 75 -2 78 -3 87 -30z m2099
-528 c-7 -11 -21 -20 -30 -20 -10 0 -18 -4 -18 -10 0 -5 11 -10 24 -10 14 0
28 -4 31 -10 4 -6 -8 -10 -30 -10 -20 0 -34 -4 -31 -9 6 -8 -10 -12 -116 -27
-24 -3 -47 -10 -52 -15 -6 -5 -34 -9 -64 -9 -29 0 -61 -4 -70 -9 -9 -4 -32
-11 -49 -14 -28 -6 -33 -4 -33 12 0 26 50 43 92 31 24 -7 36 -6 48 5 9 8 26
15 38 15 12 0 22 5 22 10 0 6 13 10 29 10 17 0 33 5 36 10 4 6 -7 10 -24 10
-17 0 -31 5 -31 10 0 6 26 10 58 10 43 0 53 -3 42 -11 -13 -9 -12 -10 2 -5 10
3 20 1 23 -4 4 -6 16 -9 28 -9 20 1 21 2 2 6 -19 5 -35 20 -35 36 0 4 12 7 28
7 15 0 34 5 42 10 8 5 23 10 33 10 15 0 15 -3 5 -20z m-558 -113 c0 -7 9 -19
20 -27 11 -8 20 -20 20 -27 0 -7 5 -13 10 -13 6 0 10 -5 10 -10 0 -6 16 -26
35 -46 19 -19 42 -46 51 -59 9 -14 23 -25 30 -25 8 0 14 -9 14 -20 0 -11 5
-20 10 -20 6 0 10 -9 10 -20 0 -11 7 -20 16 -20 8 0 12 -4 9 -10 -3 -5 1 -10
9 -10 19 0 20 11 4 29 -11 11 -10 13 2 9 9 -3 14 -16 13 -32 -1 -16 4 -26 13
-27 8 -1 19 -3 24 -4 6 -1 13 -3 16 -4 4 0 0 -8 -7 -17 -12 -15 -11 -16 8 -10
16 5 26 2 35 -13 13 -22 38 -29 38 -11 0 6 -7 10 -15 10 -10 0 -15 10 -15 31
0 17 -4 28 -10 24 -5 -3 -10 3 -10 14 0 32 17 25 75 -31 53 -51 61 -78 23 -78
-12 0 -17 -5 -14 -12 3 -7 8 -20 12 -28 3 -8 30 -31 60 -50 30 -19 61 -41 69
-47 7 -7 18 -13 24 -13 6 0 11 -4 11 -10 0 -5 7 -10 15 -10 8 0 15 -4 15 -10
0 -5 5 -10 10 -10 11 0 22 -9 103 -85 27 -25 52 -45 56 -45 3 0 17 -18 31 -40
14 -22 33 -43 42 -46 10 -3 18 -14 18 -25 0 -16 5 -19 20 -14 11 4 20 2 20 -4
0 -5 11 -23 25 -38 41 -47 45 -52 45 -62 0 -5 6 -11 12 -13 7 -3 2 -7 -10 -10
-15 -4 -22 -2 -22 9 0 8 -4 11 -10 8 -5 -3 -10 -1 -10 6 0 14 -70 79 -85 79
-7 0 -25 13 -41 28 -17 16 -37 31 -46 35 -9 3 -25 18 -35 34 -23 36 -192 203
-206 203 -5 0 -17 8 -26 18 -21 23 -110 87 -136 97 -31 12 -65 15 -65 4 0 -5
-5 -9 -11 -9 -5 0 -7 5 -4 10 3 6 -1 10 -9 10 -9 0 -15 3 -14 8 5 17 -15 51
-33 57 -10 4 -19 11 -19 16 0 13 -78 89 -90 89 -6 0 -10 5 -10 10 0 6 -5 10
-10 10 -6 0 -20 9 -32 20 -12 11 -28 20 -35 20 -7 0 -13 4 -13 10 0 12 -81
100 -92 100 -17 0 -78 70 -78 89 0 15 12 22 58 33 60 16 72 15 72 -5z m-753
-153 c5 -16 -27 -27 -42 -14 -9 8 -14 6 -19 -5 -3 -8 -17 -20 -31 -25 -36 -14
-31 -30 11 -30 21 0 33 -4 29 -10 -3 -5 -24 -10 -45 -10 -21 0 -42 -4 -45 -10
-3 -5 -15 -10 -26 -10 -10 0 -19 -3 -19 -8 0 -4 -15 -12 -34 -18 -29 -9 -36
-8 -47 8 -10 13 -26 18 -57 18 -45 0 -82 14 -82 30 0 6 13 10 29 10 17 0 32 4
35 8 2 4 22 9 42 10 21 2 43 6 49 11 5 4 28 12 50 18 162 45 195 49 202 27z
m691 -82 c7 -5 10 -16 6 -25 -4 -12 -1 -17 10 -17 10 0 16 -9 16 -25 0 -14 -4
-25 -10 -25 -15 0 -33 -81 -21 -93 15 -15 14 -100 -1 -115 -23 -23 -48 -14
-48 17 0 17 -4 33 -10 36 -6 4 -10 -7 -10 -25 0 -47 -40 -82 -88 -77 -32 3
-34 5 -14 12 29 10 31 55 2 62 -11 3 -20 8 -20 12 0 13 41 41 60 41 11 0 20 2
20 4 0 2 3 11 6 20 5 12 0 16 -20 16 -33 0 -33 4 4 43 16 17 39 52 52 77 35
69 43 76 66 62z m145 -152 c7 -26 35 -36 58 -22 13 9 20 9 25 0 4 -6 3 -8 -4
-4 -19 12 -24 -14 -8 -39 9 -14 12 -25 6 -25 -17 0 -11 -35 10 -58 11 -12 20
-33 20 -47 0 -20 -5 -25 -25 -25 -13 0 -39 -9 -57 -20 -36 -22 -68 -26 -68 -9
0 16 56 69 74 69 9 0 16 8 16 20 0 23 -21 26 -50 8 -15 -10 -25 -10 -38 -2
-21 13 -31 61 -10 48 10 -6 10 -4 -1 9 -9 11 -10 17 -2 17 6 0 11 6 11 14 0 8
4 16 10 18 5 2 10 18 12 36 3 36 13 42 21 12z"/>
<path d="M6908 9486 c-10 -7 -15 -16 -11 -19 3 -4 1 -7 -6 -7 -14 0 -81 -65
-81 -80 0 -5 -6 -10 -12 -11 -7 0 -33 -23 -58 -50 -104 -117 -146 -159 -157
-159 -7 0 -13 -9 -13 -20 0 -13 -7 -20 -20 -20 -11 0 -20 -5 -20 -10 0 -6 -13
-24 -30 -42 -16 -17 -30 -37 -30 -44 0 -8 -5 -14 -11 -14 -13 0 -72 -61 -65
-68 3 -2 24 15 48 38 24 23 56 49 73 57 35 19 55 38 55 52 0 6 6 11 14 11 8 0
17 8 20 18 4 10 22 35 41 56 19 21 35 42 35 47 0 4 9 11 20 14 11 3 20 13 20
21 0 8 10 14 22 14 12 0 19 3 16 6 -3 3 5 17 18 31 13 14 22 28 20 31 -7 6 50
62 64 62 6 0 8 5 5 10 -3 6 -1 10 5 10 13 0 40 25 40 36 0 4 7 16 17 26 19 21
6 24 -19 4z"/>
<path d="M170 5969 c0 -11 -4 -17 -10 -14 -6 4 -10 -7 -10 -24 0 -17 -4 -31
-10 -31 -5 0 -10 -13 -10 -29 0 -17 -4 -33 -10 -36 -5 -3 -10 -19 -10 -36 0
-16 -4 -29 -9 -29 -5 0 -12 -19 -15 -42 -10 -62 -28 -132 -37 -142 -5 -6 -9
-25 -9 -42 0 -18 -5 -36 -10 -39 -6 -3 -10 -22 -10 -41 0 -19 -4 -34 -10 -34
-5 0 -10 -20 -10 -45 0 -25 5 -45 10 -45 6 0 10 16 10 35 0 19 5 35 10 35 6 0
10 16 10 35 0 19 4 35 9 35 4 0 16 21 26 48 10 26 22 51 26 56 5 6 9 29 9 52
0 24 5 46 10 49 6 3 10 24 10 46 0 21 5 39 10 39 6 0 10 9 10 20 0 11 5 20 10
20 6 0 10 23 10 50 0 28 5 50 10 50 6 0 10 18 10 40 0 22 -4 40 -10 40 -5 0
-10 -9 -10 -21z"/>
<path d="M5625 4390 c-11 -5 -58 -14 -105 -20 -51 -8 -94 -20 -109 -31 l-24
-19 62 0 c34 0 61 -4 61 -10 0 -12 57 -14 62 -2 8 19 70 52 97 52 17 0 34 7
39 15 6 13 14 13 40 4 40 -14 67 -5 29 10 -31 12 -121 13 -152 1z"/>
</g>
</svg>
