<?xml version="1.0" standalone="no"?>
<!DOCTYPE svg PUBLIC "-//W3C//DTD SVG 20010904//EN"
 "http://www.w3.org/TR/2001/REC-SVG-20010904/DTD/svg10.dtd">
<svg version="1.0" xmlns="http://www.w3.org/2000/svg"
 width="512.000000pt" height="512.000000pt" viewBox="0 0 512.000000 512.000000"
 preserveAspectRatio="xMidYMid meet">
<metadata>
Created by potrace 1.15, written by Peter Selinger 2001-2017
</metadata>
<g transform="translate(0.000000,512.000000) scale(0.100000,-0.100000)"
fill="#000000" stroke="none">
<path d="M485 5104 c-45 -23 -76 -55 -96 -99 -18 -39 -19 -128 -19 -2445 0
-2305 1 -2407 19 -2445 23 -51 81 -102 123 -110 18 -3 952 -4 2075 -3 l2041 3
39 31 c21 16 48 50 61 74 l22 44 0 2406 0 2406 -23 44 c-12 24 -39 58 -60 74
l-39 31 -2056 2 c-1850 3 -2060 1 -2087 -13z m3865 -2544 l0 -2160 -1790 0
-1790 0 0 2160 0 2160 1790 0 1790 0 0 -2160z"/>
<path d="M1320 3505 l0 -365 365 0 365 0 0 365 0 365 -365 0 -365 0 0 -365z
m627 159 c11 -18 -2 -34 -157 -189 l-170 -170 -107 107 -107 107 29 31 c16 16
34 30 40 30 6 0 40 -29 75 -65 35 -36 69 -65 75 -65 6 0 69 58 140 130 118
119 131 128 149 117 11 -8 25 -22 33 -33z"/>
<path d="M2190 3510 l0 -200 830 0 830 0 0 200 0 200 -830 0 -830 0 0 -200z"/>
<path d="M1320 2565 l0 -365 365 0 365 0 0 365 0 365 -365 0 -365 0 0 -365z
m627 159 c11 -18 -2 -34 -157 -189 l-170 -170 -107 107 -107 107 29 31 c16 16
34 30 40 30 6 0 40 -29 75 -65 35 -36 69 -65 75 -65 6 0 69 58 140 130 118
119 131 128 149 117 11 -8 25 -22 33 -33z"/>
<path d="M2190 2570 l0 -200 830 0 830 0 0 200 0 200 -830 0 -830 0 0 -200z"/>
<path d="M1320 1605 l0 -365 365 0 365 0 0 365 0 365 -365 0 -365 0 0 -365z"/>
<path d="M2190 1605 l0 -205 830 0 830 0 0 205 0 205 -830 0 -830 0 0 -205z"/>
</g>
</svg>
